<?xml version="1.0" encoding="utf-8"?>
<!-- Generator: Adobe Illustrator 24.3.0, SVG Export Plug-In . SVG Version: 6.00 Build 0)  -->
<svg version="1.1" id="Capa_1" xmlns="http://www.w3.org/2000/svg" xmlns:xlink="http://www.w3.org/1999/xlink" x="0px" y="0px"
	 viewBox="0 0 1275.8 512" style="enable-background:new 0 0 1275.8 512;" xml:space="preserve">
<style type="text/css">
	.st0{fill-rule:evenodd;clip-rule:evenodd;fill:#FFFFFF;}
	.st1{fill-rule:evenodd;clip-rule:evenodd;fill:#684A98;}
	.st2{fill-rule:evenodd;clip-rule:evenodd;fill:#859EAF;}
	.st3{fill:#684A98;}
	.st4{fill:#C8D521;}
	.st5{fill:#859EAF;}
	.st6{fill:#FFFFFF;}
	.st7{fill:#B3CC05;}
</style>
<g id="Confianza_Online">
	<circle class="st0" cx="1020.1" cy="256.1" r="245.1"/>
	<path class="st1" d="M1159.3,380.7h7.2l-3.6-8.4L1159.3,380.7z M1161.5,357h2.8l15.8,34.4h-8.8l-2-4.1h-12.8l-1.9,4.1h-9
		L1161.5,357z M1112,364.1v-6.8h25l0.5,1.1l-14.6,26.2h13.7v6.8h-25.8l-0.6-1.1l15-26.2H1112z M1092.3,357.3h8v34.1l-1.8,0.5
		L1079,374v17.4h-8v-34.1l1.9-0.5l19.4,17.8V357.3z M938.6,357.3l1.9-0.5l19.4,17.8v-17.3h8v34.1l-1.8,0.5L946.5,374v17.4h-8
		L938.6,357.3L938.6,357.3z M919,368.7c-0.9-1.6-2.2-2.8-3.6-3.6c-1.5-0.8-3-1.2-4.7-1.2c-1.7,0-3.3,0.4-4.7,1.2
		c-1.5,0.9-2.7,2.1-3.6,3.6c-0.9,1.6-1.4,3.5-1.4,5.7s0.5,4.1,1.4,5.7c0.9,1.5,2.1,2.7,3.6,3.5c1.4,0.9,3,1.3,4.7,1.3
		c1.6,0,3.2-0.4,4.7-1.3c1.5-0.8,2.7-2,3.6-3.5c0.9-1.6,1.4-3.5,1.4-5.7C920.3,372.1,919.9,370.2,919,368.7z M893.7,381.1
		c-0.9-2.1-1.3-4.4-1.3-6.8s0.4-4.7,1.3-6.8c0.9-2.2,2.1-4,3.7-5.7c1.6-1.6,3.6-2.9,5.8-3.8c2.2-0.9,4.7-1.4,7.4-1.4
		s5.2,0.5,7.4,1.4c2.2,0.9,4.2,2.2,5.8,3.8c1.6,1.6,2.9,3.5,3.8,5.7c0.9,2.1,1.3,4.4,1.3,6.8s-0.4,4.7-1.3,6.8
		c-0.9,2.2-2.2,4-3.8,5.7c-0.1,0.1-0.2,0.2-0.3,0.3c-1.6,1.5-3.4,2.7-5.5,3.6c-2.2,0.9-4.7,1.4-7.4,1.4s-5.2-0.5-7.4-1.4
		c-2.1-0.9-4-2-5.5-3.6c-0.1-0.1-0.2-0.2-0.3-0.3C895.8,385.2,894.6,383.3,893.7,381.1z M1044.5,357h2.8l15.8,34.4h-8.8l-2-4.1
		h-12.8l-1.9,4.1h-9L1044.5,357z M1049.4,380.7l-3.6-8.4l-3.6,8.4H1049.4z M1012.1,357.3h8v34.1h-8V357.3L1012.1,357.3z
		 M1000.4,377.6h-10.6v13.8h-8v-34.1h21.5v6.8h-13.5v6.7h10.6V377.6z M858.6,361.4c1.7-1.6,3.6-2.7,5.8-3.5c2.2-0.8,4.5-1.2,6.8-1.3
		c2.4,0,4.5,0.4,6.3,0.9c1.8,0.6,3.2,1.3,4.4,2.1c1.1,0.8,2,1.6,2.6,2.2l-4.9,5.8c-0.3-0.4-0.8-0.8-1.6-1.4
		c-0.7-0.6-1.6-1.1-2.8-1.7c-1.1-0.5-2.5-0.7-4-0.7c-1.9,0-3.6,0.5-5.1,1.4c-1.4,0.9-2.6,2.1-3.4,3.7c-0.9,1.6-1.3,3.3-1.3,5.2
		c0,1.9,0.4,3.6,1.1,5.2s1.8,2.9,3.4,3.9c1.4,1,3.3,1.5,5.5,1.6c1.3,0,2.5-0.3,3.6-0.7c1.1-0.4,2-0.9,2.8-1.5s1.4-1.1,1.8-1.6
		l4.9,5.2c-0.2,0.3-0.5,0.5-0.7,0.8c-0.5,0.5-1.2,1.1-1.9,1.7c-1.2,0.9-2.7,1.7-4.5,2.3c-1.8,0.6-4,1-6.5,1c-3.4,0-6.4-0.8-9.1-2.3
		c-1.3-0.8-2.5-1.7-3.6-2.7c-1.1-1-2.1-2.2-2.9-3.6c-1.6-2.7-2.4-5.8-2.4-9.3c0-2.7,0.5-5.1,1.6-7.3
		C855.4,364.7,856.8,362.9,858.6,361.4z"/>
	<path class="st2" d="M1087.9,404.4l7.4-0.1v38.9l-1.7,0.5l-23.4-23.6v23.1h-7.4v-38.9l1.7-0.5l23.3,23.6L1087.9,404.4L1087.9,404.4
		z M1133.8,410.8h-16.7v9.6h13.8v6.3h-13.8V437h17.3v6.3h-24.8v-38.9h24.2V410.8z M1026.4,437v6.3H1003v-38.8h7.4V437H1026.4z
		 M1039.2,404.4h7.5v38.9h-7.5V404.4z M933,416.7c-1.2-2-2.7-3.6-4.7-4.7c-1.9-1.1-3.9-1.7-6.1-1.7c-2.2,0-4.3,0.6-6.2,1.7
		c-1.9,1.1-3.4,2.6-4.6,4.7c-1.2,2-1.8,4.4-1.8,7.2c0,2.7,0.6,5.1,1.8,7.2c1.2,2,2.7,3.5,4.6,4.6c1.9,1.1,4,1.6,6.2,1.7
		c2.2,0,4.3-0.6,6.1-1.7c1.9-1.1,3.5-2.6,4.7-4.6c1.2-2,1.8-4.4,1.8-7.2S934.2,418.7,933,416.7z M932.8,406.4
		c3.1,1.8,5.5,4.3,7.3,7.3c1.8,3.1,2.7,6.5,2.7,10.2s-0.9,7.1-2.7,10.2s-4.2,5.5-7.3,7.3c-3.1,1.8-6.7,2.7-10.7,2.8
		c-4,0-7.6-1-10.7-2.8c-3.1-1.8-5.5-4.2-7.2-7.3c-1.8-3.1-2.6-6.5-2.6-10.2s0.9-7.1,2.6-10.2c1.8-3,4.2-5.4,7.2-7.3
		c3.1-1.8,6.7-2.7,10.7-2.7C926.2,403.7,929.7,404.6,932.8,406.4z M956.3,404.3l1.7-0.5l23.3,23.6v-23.1l7.4-0.1v38.9l-1.7,0.5
		L963.6,420v23.1h-7.4L956.3,404.3L956.3,404.3z"/>
	<path class="st3" d="M1025.7,320h-2.8c-0.1,0-0.1,0-0.2,0c-33-0.7-61.6-12.9-85.1-36.2c-24.1-23.8-36.3-53.1-36.3-87.1
		c0-33.8,12.2-63.1,36.3-87.1c23.5-23.2,52.1-35.3,85-36c0.1,0,0.1,0,0.2,0c5.5,0,10,4.4,10.1,9.9c0.1,5.6-4.3,10.2-9.9,10.3
		c-28,0.6-51.3,10.4-71.2,30.1c-20.4,20.3-30.3,44.1-30.3,72.7c0,28.7,9.9,52.5,30.3,72.7c19.9,19.8,43.2,29.7,71.1,30.3h2.7
		c28.9,0,52.9-9.9,73.3-30.3c20.6-20.2,30.6-44,30.6-72.7v-1.2c0-5.6,4.5-10.1,10.1-10.1s10.1,4.5,10.1,10.1v1.2
		c0,33.9-12.3,63.2-36.6,87.1C1089.2,307.8,1059.7,320,1025.7,320z"/>
	<path class="st4" d="M1020.1,509.3c-69.6,0-129.8-24.9-179-74.2c-49.2-49.2-74.2-109.4-74.2-179s24.9-129.8,74.2-179
		c49.2-49.2,109.4-74.2,179-74.2s129.8,24.9,179,74.2c49.2,49.2,74.2,109.4,74.2,179s-24.9,129.8-74.2,179l0,0l0,0
		C1150,484.3,1089.7,509.3,1020.1,509.3z M1020.1,19.1c-65.1,0-121.5,23.4-167.6,69.4c-46.1,46.1-69.4,102.4-69.4,167.6
		c0,65.1,23.4,121.5,69.4,167.6c46.1,46.1,102.4,69.4,167.6,69.4c65.1,0,121.5-23.4,167.6-69.4l0,0c46.1-46.1,69.4-102.4,69.4-167.6
		c0-65.1-23.4-121.5-69.4-167.6S1085.3,19.1,1020.1,19.1z"/>
	<path class="st4" d="M1021.6,285.5c-0.2,0-0.3,0-0.5,0c-22.5-1.1-42.1-9.8-58.2-26c-17.2-17.2-26-38.3-26-62.7s8.7-45.5,26-62.8
		c16.2-16.1,35.7-24.8,58.2-25.8c1.6-0.1,3.2-0.1,4.7-0.1c24.4,0,45.4,8.7,62.7,26c16.9,16.9,25.7,37.6,26,61.4
		c0.1,5.6-4.4,10.2-10,10.3c-0.1,0-0.1,0-0.2,0c-5.5,0-10-4.4-10.1-10c-0.3-18.6-6.9-34.1-20.1-47.4c-13.5-13.5-29.3-20-48.4-20
		c-1.2,0-2.4,0-3.5,0.1c-0.1,0-0.1,0-0.2,0c-17.5,0.8-32.2,7.3-44.9,19.9c-13.5,13.5-20,29.4-20,48.5s6.6,34.9,20,48.4
		c12.7,12.7,27.3,19.3,44.9,20.1c5.6,0.3,9.9,5,9.6,10.6C1031.4,281.3,1026.9,285.5,1021.6,285.5z"/>
	<path class="st5" d="M1025.6,250.1c-14.6,0-27.3-5.3-37.7-15.6c-10.3-10.3-15.6-23-15.6-37.7c0-14.6,5.2-27.3,15.6-37.7
		s23.1-15.6,37.7-15.6c14.6,0,27.3,5.2,37.7,15.6c10.4,10.4,15.6,23.1,15.6,37.7c0,14.7-5.3,27.3-15.7,37.7
		C1052.9,244.9,1040.3,250.1,1025.6,250.1z M1025.6,163.8c-9.2,0-16.9,3.2-23.4,9.7s-9.6,14.2-9.6,23.4s3.2,16.8,9.7,23.3
		s14.2,9.7,23.4,9.7c9.2,0,16.8-3.2,23.3-9.7c6.6-6.5,9.7-14.2,9.7-23.4s-3.2-16.9-9.7-23.4C1042.5,166.9,1034.8,163.8,1025.6,163.8
		z"/>
</g>
<g id="Ecommerce_Europe_Trustmark">
	<path class="st6" d="M153.7,138.2h31.5c0.3,1.5,0.5,3.1,0.5,4.7c0,1.7-0.1,3.3-0.5,4.9H165v12.1h16.1c0.3,1.6,0.5,3.3,0.5,4.8
		c0,1.6-0.1,3.3-0.5,4.9H165v14.7h20.8c0.3,1.5,0.5,3.1,0.5,4.7c0,1.7-0.1,3.3-0.5,4.9h-32.1V138.2z"/>
	<path class="st6" d="M235,183.3c0.7,1.5,1.3,2.9,1.7,4.4c0.4,1.5,0.7,3.1,1,4.6c-2.7,1-5.1,1.6-7.2,1.9c-2.2,0.3-4.5,0.5-6.9,0.5
		c-4.4,0-8.2-0.7-11.5-2.1c-3.3-1.4-6.1-3.4-8.3-6c-2.3-2.6-4-5.6-5.1-9.1c-1.2-3.5-1.7-7.3-1.7-11.4c0-4.1,0.6-7.9,1.8-11.5
		c1.2-3.5,2.9-6.6,5.1-9.2c2.2-2.6,5-4.6,8.2-6c3.3-1.4,7-2.2,11.2-2.2c2.5,0,4.7,0.2,6.8,0.5c2.1,0.3,4.4,1,6.8,1.9
		c-0.1,1.5-0.4,3-0.9,4.5c-0.5,1.5-1.1,3-1.7,4.5c-1.8-0.6-3.4-1-4.8-1.3c-1.4-0.3-3-0.4-5-0.4c-4.9,0-8.7,1.6-11.4,4.8
		c-2.7,3.2-4,8-4,14.3c0,12.6,5.4,18.9,16,18.9c1.9,0,3.6-0.1,5-0.4C231.5,184.3,233.2,183.9,235,183.3"/>
	<path class="st6" d="M271,194.7c-4.2,0-7.8-0.7-10.8-2.1c-3-1.4-5.5-3.4-7.5-6c-1.9-2.6-3.4-5.6-4.4-9.1c-0.9-3.5-1.5-7.3-1.5-11.4
		c0-4.1,0.5-7.9,1.5-11.5c1-3.5,2.4-6.6,4.4-9.2c2-2.6,4.5-4.6,7.5-6c3.1-1.4,6.7-2.1,10.8-2.1c4.2,0,7.8,0.7,10.8,2.1
		c3.1,1.5,5.6,3.5,7.5,6c2,2.6,3.4,5.6,4.4,9.2c1,3.6,1.4,7.4,1.4,11.5c0,4.1-0.5,7.9-1.4,11.4c-0.9,3.5-2.4,6.5-4.4,9.1
		c-1.9,2.5-4.4,4.5-7.5,6C278.8,194,275.1,194.7,271,194.7 M271,185.3c8,0,12-6.4,12-19.2c0-6.4-1-11.2-2.9-14.4
		c-1.9-3.2-4.9-4.8-9-4.8c-8.1,0-12.1,6.4-12.1,19.2C258.9,178.9,262.9,185.3,271,185.3"/>
	<path class="st6" d="M310.5,138.2c2.1-0.3,4-0.5,6-0.5c2,0,4,0.1,6,0.5l12.8,31.9l13.1-31.9c1.6-0.3,3.4-0.5,5.3-0.5
		c1.9,0,3.9,0.1,5.6,0.5l2.6,55.6c-2,0.3-3.8,0.5-5.6,0.5c-1.8,0-3.5-0.1-5.2-0.5l-1.4-37.7l-11.3,26.2c-0.7,0.1-1.5,0.2-2.3,0.3
		c-0.7,0.1-1.5,0.1-2.3,0.1c-0.7,0-1.3,0-2-0.1c-0.7-0.1-1.3-0.2-2.1-0.3l-10.5-26.7l-1.1,38.3c-1.7,0.3-3.2,0.5-4.8,0.5
		c-1.6,0-3.3-0.1-5.1-0.5L310.5,138.2z"/>
	<path class="st6" d="M378.6,138.2c2.1-0.3,4-0.5,6-0.5c2,0,4,0.1,5.9,0.5l12.7,31.9l13.2-31.9c1.6-0.3,3.4-0.5,5.3-0.5
		c1.9,0,3.8,0.1,5.6,0.5l2.6,55.6c-2,0.3-3.8,0.5-5.6,0.5c-1.7,0-3.5-0.1-5.2-0.5l-1.4-37.7l-11.3,26.2c-0.7,0.1-1.5,0.2-2.2,0.3
		c-0.8,0.1-1.5,0.1-2.3,0.1c-0.7,0-1.3,0-2-0.1c-0.7-0.1-1.3-0.2-2.1-0.3l-10.5-26.7l-1.1,38.3c-1.6,0.3-3.2,0.5-4.8,0.5
		c-1.7,0-3.4-0.1-5.1-0.5L378.6,138.2z"/>
	<path class="st6" d="M445.4,138.2H477c0.3,1.5,0.4,3.1,0.4,4.7c0,1.7-0.1,3.3-0.4,4.9h-20.3v12.1h16.1c0.3,1.6,0.5,3.3,0.5,4.8
		c0,1.6-0.2,3.3-0.5,4.9h-16.1v14.7h20.8c0.3,1.5,0.5,3.1,0.5,4.7c0,1.7-0.2,3.3-0.5,4.9h-32.1V138.2z"/>
	<path class="st6" d="M491.7,138.2c2.3-0.3,4.4-0.5,6.4-0.6c2-0.2,4.2-0.3,6.6-0.3c2.8,0,5.6,0.3,8.4,0.8c2.8,0.5,5.2,1.4,7.5,2.8
		c2.2,1.3,4,3.1,5.4,5.3c1.3,2.2,2.1,5.1,2.1,8.6c0,2.1-0.3,3.9-0.8,5.4c-0.5,1.6-1.2,3-2,4.1c-0.8,1.2-1.6,2.2-2.6,3.1
		c-0.9,0.8-1.8,1.5-2.6,2l-1.3,0.9l13.5,23.5c-1,0.1-2.1,0.2-3.2,0.3c-1.2,0.1-2.3,0.2-3.5,0.2c-2,0-3.9-0.2-5.8-0.5l-14.5-25.8
		l1.9-0.9c0.7-0.3,1.6-0.8,2.6-1.4c1-0.6,2-1.3,3-2.1c1-0.9,1.8-1.9,2.4-3.1c0.7-1.2,1-2.6,1-4.3c0-3.2-0.9-5.6-2.8-7.1
		c-1.9-1.6-4.3-2.3-7.2-2.3c-1.1,0-2.2,0.1-3.1,0.3v46.9c-0.9,0.1-1.8,0.2-2.8,0.3c-0.9,0.1-1.8,0.1-2.7,0.1c-0.9,0-1.8,0-2.8-0.1
		c-1-0.1-2-0.1-3-0.3V138.2z"/>
	<path class="st6" d="M578.8,183.3c0.7,1.5,1.2,2.9,1.7,4.4c0.4,1.5,0.7,3.1,1,4.6c-2.7,1-5.1,1.6-7.2,1.9c-2.1,0.3-4.5,0.5-6.9,0.5
		c-4.4,0-8.2-0.7-11.5-2.1c-3.3-1.4-6.1-3.4-8.3-6c-2.2-2.6-3.9-5.6-5-9.1c-1.2-3.5-1.7-7.3-1.7-11.4c0-4.1,0.6-7.9,1.8-11.5
		c1.2-3.5,2.9-6.6,5.1-9.2c2.2-2.6,5-4.6,8.3-6c3.3-1.4,7-2.2,11.2-2.2c2.5,0,4.8,0.2,6.8,0.5c2.1,0.3,4.3,1,6.8,1.9
		c-0.1,1.5-0.4,3-0.9,4.5c-0.5,1.5-1.1,3-1.7,4.5c-1.8-0.6-3.4-1-4.8-1.3c-1.3-0.3-3-0.4-4.9-0.4c-5,0-8.8,1.6-11.4,4.8
		c-2.7,3.2-4,8-4,14.3c0,12.6,5.3,18.9,16,18.9c1.9,0,3.6-0.1,5-0.4C575.4,184.3,577,183.9,578.8,183.3"/>
	<path class="st6" d="M594.2,138.2h31.6c0.3,1.5,0.5,3.1,0.5,4.7c0,1.7-0.2,3.3-0.5,4.9h-20.3v12.1h16.1c0.3,1.6,0.5,3.3,0.5,4.8
		c0,1.6-0.1,3.3-0.5,4.9h-16.1v14.7h20.8c0.3,1.5,0.5,3.1,0.5,4.7c0,1.7-0.1,3.3-0.5,4.9h-32.1V138.2z"/>
	<path class="st6" d="M155.1,216.9h30.6c0.1,1,0.2,2.2,0.2,3.4c0,0.6,0,1.2-0.1,1.8c0,0.6-0.1,1.2-0.2,1.7h-22.7v15.9h18.1
		c0.1,0.5,0.2,1.1,0.2,1.7c0.1,0.6,0.1,1.2,0.1,1.7c0,0.6,0,1.2-0.1,1.8c-0.1,0.6-0.1,1.2-0.2,1.7h-18.1v19h23.3
		c0.1,1,0.2,2.2,0.2,3.4c0,0.6,0,1.2,0,1.8c0,0.6-0.1,1.2-0.2,1.7h-31.2V216.9z"/>
	<path class="st6" d="M200.2,216.9c1.3-0.2,2.6-0.2,4-0.2c1.4,0,2.7,0.1,3.9,0.2v31.6c0,3.2,0.2,5.9,0.6,8.2c0.4,2.3,1.1,4.1,2,5.5
		c0.9,1.4,2.1,2.5,3.7,3.1c1.5,0.7,3.4,1,5.6,1c2.2,0,4.1-0.3,5.6-1c1.5-0.7,2.7-1.7,3.6-3.1c0.9-1.4,1.6-3.3,2-5.5
		c0.4-2.3,0.6-5,0.6-8.2v-31.6c1.3-0.2,2.6-0.2,3.9-0.2c1.4,0,2.8,0.1,4,0.2v33c0,3.7-0.3,7-1,10c-0.7,3-1.8,5.4-3.4,7.4
		c-1.6,2-3.6,3.5-6.2,4.6c-2.5,1.1-5.6,1.6-9.2,1.6c-3.6,0-6.7-0.5-9.2-1.6c-2.5-1.1-4.6-2.6-6.2-4.6c-1.6-2-2.7-4.5-3.4-7.4
		c-0.7-2.9-1.1-6.3-1.1-10V216.9z"/>
	<path class="st6" d="M257.8,216.9c1.1-0.1,2.2-0.2,3.1-0.3c0.9-0.1,1.9-0.2,2.7-0.3c0.9-0.1,1.8-0.1,2.8-0.2c1-0.1,2.1-0.1,3.3-0.1
		c2.6,0,5.2,0.2,7.8,0.7c2.6,0.5,4.9,1.4,6.9,2.7c2,1.2,3.7,3,4.9,5.2c1.3,2.2,1.9,4.9,1.9,8.3c0,2-0.3,3.9-1,5.5
		c-0.7,1.6-1.5,3.1-2.6,4.4c-1,1.3-2.2,2.4-3.5,3.4c-1.3,0.9-2.6,1.7-3.8,2.3l-0.9,0.5l16.2,23.4c-1.4,0.1-3,0.2-4.7,0.2
		c-1.4,0-2.8-0.1-4.2-0.2l-17.8-25.8v-0.3l0.6-0.1c1.4-0.4,2.9-0.9,4.4-1.5c1.5-0.6,3-1.4,4.3-2.5c1.3-1,2.4-2.2,3.3-3.7
		c0.9-1.4,1.3-3.1,1.3-5.1c0-3.7-1.1-6.5-3.3-8.3c-2.2-1.8-5.2-2.7-8.9-2.7c-0.9,0-1.7,0.1-2.4,0.1c-0.7,0-1.6,0.1-2.5,0.2v49.6
		c-0.6,0-1.2,0.1-1.9,0.1c-0.7,0.1-1.4,0.1-2,0.1c-0.6,0-1.3,0-2,0c-0.7-0.1-1.4-0.1-2-0.2V216.9z"/>
	<path class="st6" d="M328.9,273.5c-4,0-7.5-0.7-10.4-2.1c-2.9-1.4-5.4-3.4-7.3-6c-1.9-2.5-3.4-5.6-4.3-9.1c-1-3.5-1.4-7.3-1.4-11.5
		c0-4.2,0.5-8,1.4-11.5c1-3.5,2.4-6.5,4.3-9.1c1.9-2.5,4.4-4.6,7.3-6c2.9-1.4,6.4-2.1,10.4-2.1c4,0,7.5,0.7,10.4,2.1
		c3,1.4,5.4,3.4,7.3,6c1.9,2.6,3.4,5.6,4.3,9.1c0.9,3.5,1.4,7.3,1.4,11.5c0,4.2-0.5,8-1.4,11.5c-0.9,3.5-2.3,6.5-4.3,9.1
		c-1.9,2.6-4.4,4.5-7.3,6C336.4,272.8,332.9,273.5,328.9,273.5 M328.9,266.7c2.6,0,4.8-0.5,6.7-1.5c1.9-1,3.4-2.5,4.7-4.4
		c1.2-1.9,2.2-4.2,2.8-6.9c0.6-2.7,0.9-5.7,0.9-9.1c0-3.3-0.3-6.4-0.9-9.1c-0.6-2.7-1.6-5-2.8-6.9c-1.2-1.9-2.8-3.4-4.7-4.4
		c-1.9-1-4.1-1.5-6.7-1.5c-2.6,0-4.8,0.5-6.7,1.5c-1.9,1-3.5,2.5-4.7,4.4c-1.3,1.9-2.2,4.2-2.8,6.9c-0.6,2.7-0.9,5.7-0.9,9.1
		c0,3.4,0.3,6.5,0.9,9.1c0.6,2.7,1.5,5,2.8,6.9c1.2,1.9,2.8,3.4,4.7,4.4C324,266.2,326.3,266.7,328.9,266.7"/>
	<path class="st6" d="M368.4,216.9c0.8-0.1,1.7-0.2,2.8-0.3c1-0.1,2.2-0.2,3.3-0.3c1.2-0.1,2.3-0.1,3.5-0.2c1.1-0.1,2.3-0.1,3.4-0.1
		c2.8,0,5.5,0.3,8.1,0.8c2.5,0.6,4.8,1.5,6.7,2.9c1.9,1.4,3.5,3.2,4.6,5.5c1.1,2.3,1.7,5.2,1.7,8.6c0,3.6-0.6,6.6-1.8,9
		c-1.2,2.4-2.8,4.3-4.8,5.8c-2,1.4-4.3,2.4-6.8,3c-2.6,0.6-5.1,0.9-7.7,0.9c-1,0-1.9,0-2.6-0.1c-0.7,0-1.6-0.1-2.4-0.2v20.1
		c-1.2,0.1-2.5,0.2-4,0.2c-0.6,0-1.3,0-1.9,0c-0.7-0.1-1.3-0.1-2-0.2V216.9z M376.3,245.5c0.8,0.1,1.6,0.2,2.2,0.2
		c0.6,0.1,1.5,0.1,2.7,0.1c1.6,0,3.2-0.2,4.7-0.5c1.6-0.3,3-0.9,4.2-1.8c1.3-0.9,2.2-2.1,3-3.6c0.8-1.5,1.1-3.5,1.1-5.9
		c0-2.1-0.3-3.9-1-5.3c-0.7-1.5-1.5-2.6-2.7-3.5c-1.1-0.9-2.5-1.5-4.1-1.9c-1.6-0.4-3.3-0.5-5.2-0.5c-1.9,0-3.6,0.1-5,0.2V245.5z"/>
	<path class="st6" d="M416.6,216.9h30.5c0.1,1,0.2,2.2,0.2,3.4c0,0.6,0,1.2,0,1.8c0,0.6-0.1,1.2-0.2,1.7h-22.7v15.9h18.1
		c0.1,0.5,0.2,1.1,0.2,1.7c0,0.6,0.1,1.2,0.1,1.7c0,0.6,0,1.2-0.1,1.8c0,0.6-0.1,1.2-0.2,1.7h-18.1v19h23.3c0.1,1,0.2,2.2,0.2,3.4
		c0,0.6,0,1.2,0,1.8c0,0.6-0.1,1.2-0.2,1.7h-31.2V216.9z"/>
	<path class="st6" d="M46.2,202.5l10.7,30.4l33.5,0.4l-26.8,19.2l10,30.6l-27.3-18.5l-27.3,18.5l9.9-30.6L2,233.3l33.4-0.4
		L46.2,202.5z M66,117.6L32.5,118l26.8,19.2l-9.9,30.6l27.3-18.5l27.3,18.5l-9.9-30.6l26.8-19.2l-33.5-0.4L76.7,87.2L66,117.6z
		 M182,53.6l26.8-19.2l-33.5-0.4L164.7,3.7l-10.7,30.4l-33.4,0.4l26.8,19.2l-10,30.6l27.3-18.5L192,84.3 M153.9,429.1l-33.4,0.4
		l26.8,19.2l-10,30.6l27.3-18.5l27.3,18.5l-9.9-30.6l26.8-19.2l-33.5-0.4l-10.7-30.4L153.9,429.1z M391.8,429.1l-33.5,0.4l26.8,19.2
		l-10,30.6l27.3-18.5l27.3,18.5l-9.9-30.6l26.8-19.2l-33.5-0.4l-10.7-30.4L391.8,429.1z M66,345.6L32.5,346l26.8,19.2l-9.9,30.6
		l27.3-18.5l27.3,18.5l-9.9-30.6l26.8-19.2l-33.5-0.4l-10.7-30.4L66,345.6z M478.9,345.6l-33.4,0.4l26.8,19.2l-9.9,30.6l27.3-18.5
		l27.3,18.5l-9.9-30.6l26.8-19.2l-33.4-0.4l-10.7-30.4L478.9,345.6z M273.3,459.2l-33.4,0.4l26.8,19.1l-9.9,30.6l27.3-18.5
		l27.3,18.5l-10-30.6l26.8-19.1l-33.4-0.4l-10.7-30.4L273.3,459.2z"/>
	<path class="st6" d="M386.3,88.6h-5c0-0.8,0.1-1.6,0.2-2.4c0.1-0.8,0.4-1.6,0.7-2.5h5c0.2-1.1,0.4-2.2,0.6-3.3
		c0.2-1.1,0.2-2.3,0.2-3.5v-1c0.8-0.4,1.8-0.7,3-0.9c1.2-0.2,2.2-0.3,3-0.3c0,0.4,0.1,0.7,0.1,1.1c0,0.4,0,0.8,0,1.2
		c0,1.3-0.2,2.9-0.5,4.8l-0.4,1.9h8c0,0.9-0.1,1.8-0.2,2.5c-0.1,0.8-0.3,1.6-0.6,2.4h-8l-2.4,13.5c-0.2,1-0.4,1.9-0.6,3
		c-0.2,1-0.3,1.9-0.3,2.8c0,1.3,0.3,2.1,1,2.6c0.6,0.5,1.5,0.7,2.6,0.7c0.7,0,1.4-0.1,1.9-0.2c0.6-0.1,1.2-0.2,1.7-0.4
		c0.1,0.4,0.2,0.9,0.3,1.4c0.1,0.5,0.1,1,0.1,1.6v0.9c0,0.3,0,0.6-0.1,1c-0.5,0.2-1.2,0.3-2.1,0.5c-0.9,0.1-1.8,0.2-2.8,0.2
		c-1.3,0-2.5-0.1-3.6-0.3c-1.1-0.2-2-0.5-2.8-1.1c-0.8-0.5-1.4-1.2-1.8-2.1c-0.4-0.9-0.7-2.1-0.7-3.5c0-0.8,0.1-1.6,0.2-2.5
		c0.1-0.9,0.3-1.8,0.5-2.8L386.3,88.6z"/>
	<path class="st6" d="M407.1,115.6c0.5-2.6,1-5.4,1.5-8.3c0.6-2.9,1.1-5.7,1.6-8.4c0.5-2.7,0.9-5.2,1.2-7.5c0.3-2.3,0.5-4.1,0.5-5.4
		c0-0.5,0-1,0-1.3c0-0.3-0.1-0.7-0.2-1.2c0.5-0.1,1-0.1,1.5-0.2c0.5,0,1,0,1.5,0c0.4,0,0.9,0,1.4,0c0.5,0,1,0.1,1.4,0.2
		c0.1,0.3,0.1,0.7,0.2,1.1c0,0.4,0.1,0.9,0.1,1.7c0,1-0.1,1.9-0.2,2.8c0.5-0.7,1.1-1.5,1.8-2.1c0.6-0.7,1.4-1.3,2.1-1.8
		c0.8-0.5,1.7-1,2.6-1.3c1-0.3,2-0.5,3.2-0.5c0.3,0,0.7,0,1.1,0.1c0.4,0,0.7,0.1,1,0.2c0,0.8-0.1,1.8-0.3,2.8c-0.2,1.1-0.5,2-1,2.7
		c-0.2,0-0.4-0.1-0.8-0.1c-0.4,0-0.7-0.1-1-0.1c-2.8,0-5,1-6.8,3c-1.7,2-3,5.1-3.7,9.2l-2.6,14.3c-0.9,0.1-1.7,0.2-2.6,0.2h-1.6
		L407.1,115.6z"/>
	<path class="st6" d="M439.9,83.6c0.5-0.1,1-0.1,1.6-0.2c0.6,0,1.1-0.1,1.6-0.1c0.5,0,1,0,1.5,0.1c0.5,0,1,0.1,1.5,0.2l-3.4,19.2
		c-0.2,1.3-0.4,2.5-0.4,3.6c0,1.7,0.4,2.8,1.2,3.6c0.8,0.7,1.8,1.1,3.1,1.1c1.1,0,2.2-0.3,3.3-1c1.1-0.7,2.1-1.7,3.1-3
		c1-1.3,1.8-3,2.6-4.9c0.8-2,1.4-4.2,1.8-6.7l2.1-11.7c0.5-0.1,1-0.1,1.6-0.2c0.6,0,1.1-0.1,1.6-0.1c0.5,0,1,0,1.5,0.1
		c0.6,0,1,0.1,1.5,0.2l-3.3,18.5c-0.5,2.5-0.8,4.6-1.1,6.4c-0.3,1.8-0.4,3.3-0.4,4.7c0,0.5,0,1,0,1.3c0,0.3,0,0.7,0.1,1.2
		c-0.5,0.1-0.9,0.1-1.5,0.2c-0.5,0-1,0.1-1.5,0.1c-0.4,0-0.9,0-1.4-0.1c-0.5,0-1-0.1-1.4-0.2c-0.2-0.5-0.2-1.5-0.2-2.9
		c0-0.8,0.1-1.5,0.2-2.2c0.1-0.7,0.2-1.4,0.3-2.1c-0.4,0.9-1,1.8-1.7,2.7c-0.7,0.9-1.6,1.8-2.6,2.5c-1,0.7-2.1,1.4-3.3,1.9
		c-1.2,0.5-2.5,0.7-3.9,0.7c-2.5,0-4.4-0.7-5.8-2c-1.4-1.3-2.1-3.4-2.1-6.2c0-0.6,0-1.3,0.1-2.1c0.1-0.8,0.2-1.5,0.3-2.2L439.9,83.6
		z"/>
	<path class="st6" d="M482.9,100.6c-0.6-0.2-1.3-0.6-2-0.9c-0.7-0.4-1.4-0.9-1.9-1.4s-1.1-1.3-1.5-2.2c-0.4-0.9-0.6-2-0.6-3.2
		c0-1.5,0.3-2.9,0.9-4.1c0.6-1.2,1.5-2.3,2.6-3.1c1.1-0.9,2.5-1.5,4-2c1.6-0.5,3.3-0.7,5.2-0.7c1.7,0,3.3,0.2,4.9,0.6
		c1.5,0.4,2.7,0.8,3.6,1.2c-0.3,1.6-0.9,3.2-1.8,4.7c-0.7-0.3-1.7-0.7-2.9-1c-1.2-0.4-2.6-0.5-4-0.5c-1.8,0-3.3,0.3-4.5,0.9
		c-1.2,0.6-1.8,1.7-1.8,3.2c0,1,0.3,1.8,0.8,2.4c0.6,0.6,1.6,1.3,3,1.8l1.4,0.6c0.8,0.4,1.6,0.8,2.5,1.2c0.9,0.4,1.6,0.9,2.3,1.5
		c0.7,0.6,1.2,1.3,1.7,2.2c0.4,0.9,0.7,1.9,0.7,3.1c0,2-0.4,3.7-1.1,5.1c-0.7,1.4-1.8,2.6-3.1,3.6c-1.3,0.9-2.8,1.6-4.5,2.1
		c-1.7,0.5-3.6,0.7-5.6,0.7c-1.7,0-3.3-0.1-4.9-0.4c-1.6-0.3-2.9-0.7-4-1.1c0.1-0.9,0.2-1.8,0.5-2.6c0.2-0.8,0.6-1.6,1-2.4
		c1.1,0.5,2.3,0.8,3.8,1.1c1.5,0.3,2.8,0.4,4.1,0.4c1,0,2-0.1,2.9-0.3c0.9-0.2,1.7-0.5,2.4-0.9c0.7-0.4,1.2-0.9,1.6-1.6
		c0.4-0.7,0.6-1.5,0.6-2.5c0-1.3-0.4-2.3-1.1-2.9c-0.7-0.6-1.8-1.2-3.2-1.8L482.9,100.6z"/>
	<path class="st6" d="M512,88.6h-5.1c0-0.8,0.1-1.6,0.2-2.4c0.1-0.8,0.4-1.6,0.7-2.5h5c0.2-1.1,0.4-2.2,0.6-3.3
		c0.2-1.1,0.2-2.3,0.2-3.5v-1c0.8-0.4,1.8-0.7,3-0.9c1.2-0.2,2.2-0.3,3-0.3c0,0.4,0.1,0.7,0.1,1.1c0,0.4,0,0.8,0,1.2
		c0,1.3-0.2,2.9-0.5,4.8l-0.4,1.9h8c0,0.9-0.1,1.8-0.2,2.5c-0.1,0.8-0.3,1.6-0.6,2.4h-8l-2.4,13.5c-0.2,1-0.4,1.9-0.6,3
		c-0.2,1-0.3,1.9-0.3,2.8c0,1.3,0.3,2.1,1,2.6c0.6,0.5,1.5,0.7,2.6,0.7c0.7,0,1.3-0.1,1.9-0.2c0.6-0.1,1.2-0.2,1.7-0.4
		c0.1,0.4,0.2,0.9,0.3,1.4c0.1,0.5,0.1,1,0.1,1.6v0.9c0,0.3,0,0.6-0.1,1c-0.5,0.2-1.2,0.3-2.1,0.5c-0.9,0.1-1.8,0.2-2.8,0.2
		c-1.3,0-2.5-0.1-3.7-0.3c-1.1-0.2-2-0.5-2.8-1.1c-0.8-0.5-1.4-1.2-1.8-2.1c-0.4-0.9-0.7-2.1-0.7-3.5c0-0.8,0.1-1.6,0.2-2.5
		c0.1-0.9,0.3-1.8,0.5-2.8L512,88.6z"/>
	<path class="st7" d="M425.5,5.2c0.4-0.1,0.5-0.1,0.7-0.1C426.4,4.8,425.4,5.1,425.5,5.2"/>
	<path class="st7" d="M425.5,5.2C425,5.4,425.8,5.5,425.5,5.2"/>
	<path class="st7" d="M421.5,6.2c-0.6,0.6-4.1,2.2-4.7,2.3c-0.8,0.2-1.5,0.9-1.7,0.9l0-0.4c-2.4,0.6-6.8,3.8-8.3,4.3
		c0.2,0.2-0.9,0.8-0.5,0.3c-0.3,0.4-0.7,0.8-1.5,1.2l-0.1-0.2c-0.1,0.1-0.3,0.2-0.4,0.1c0.1-0.1,0.3-0.2,0.4-0.1
		c0.8-0.6,2.2-1.5,3.5-2.7c-0.9,0.8-2.9,2.1-4,2.6c0.6-0.5,1.8-1.2,2.3-1.7c-1.4,0.7-5.2,3.7-6.4,4.1c1.5-1,3.7-2.3,3.8-2.9
		c0.4-0.1,1.3-0.9,1.7-1.2c-0.3-0.2-0.7,0.5-1,0.5c-0.5,0-1.7,1.3-2.2,1.2c0.3-0.4,0.6-0.3,0.8-0.6c-0.7,0.2-1.8,1.4-2.6,1.6
		c0.7-0.6,2.2-1.4,3.1-2.2c-0.9,0.4-0.9,0.3-1.3,0.1c-1,0.6-1,0.7-1.9,1.3l0,0.1c0.3,0-0.1,0.5-0.3,0.7c-0.2,0.1-0.4,0-0.5-0.1
		c0.1-0.3,0.7-0.2,0.8-0.6c-0.1,0.1-0.2,0.1,0-0.1c1.4-1.2,3.7-2.4,5.2-3.8c-0.7,0.8,0.9-0.5,1-0.6c-0.2,0.1-0.5,0.1-0.2-0.1
		c0.3-0.2,0.6-0.4,0.7-0.3c-0.4,0.3-0.2,0.2-0.1,0.3c0.6-0.3,0.1-0.4,0.3-0.6c-1.5,0.9-3.3,2.3-4.6,2.9c0.1,0.1-0.8,0.7-0.8,0.5
		l0.8-0.5c-0.5,0.2,0.1-0.6-0.5-0.1c-0.2,0.2,0.1,0.1,0.1,0.2c-0.8,0.2-0.6,0.9-1.7,1.4c0.1,0.1,0.3,0-0.1,0.3
		c0-0.1-0.1-0.2,0.1-0.3l0.4-0.5c0.1-0.3-0.7,0-0.2-0.4l2.5-1.6c0.4-0.4-3,1.9-1.1,0.4l-0.1-0.2c-0.1,0.1-0.5,0.6-0.7,0.4
		c0.2-0.1,0.3-0.2,0.3-0.3c-0.3,0.1-0.8,0.6-0.9,0.5c0.9-0.8,2-1.3,3.4-2.3c-0.8,0-2,1.5-2.4,1.3c0.3-0.3,1.8-1.1,1.3-0.9
		c-0.4,0.2-1.2,1-1.2,0.6c1.3-0.9,1.6-1.1,2.9-2c0,0,0.1-0.2,0.2-0.1c0.8-0.7,1.2-0.5,1.6-1.2c0.5,0.1,1.1-0.6,1.5-1l-0.2-0.1
		c-2.5,1.9-5.7,3.9-9.2,6.2c-0.1-0.4-0.3,0.1-0.6,0.1c0,0.2,0.4-0.1,0.5,0l-1.3,0.9c-0.4,0.3-0.7,0.6-0.9,0.5l0.8-0.7
		c2-1.9-0.3,0.1-1.2,0.7c3.6-3.2-2.3,2-2.4,1.8c0-0.2,0.8-0.7,0.6-0.9l-0.4,0.2c-0.2,0.3-0.3,0.4-0.6,0.5c0.6,0.1-0.3,1-0.7,1.1
		c0.4-0.5,0.6-0.7,0.2-0.7c0.2-0.2,0.3-0.1,0.5-0.3c0-0.1,0.5-0.9,0.6-0.5c0.5-0.9,1.6-1.4,2-2.1c0.9-0.4,1.5-1.4,2.7-2.1
		c-0.1-0.4-0.9,0.3-1.2,0.3c1-0.6,1.6-1.3,2.2-1.4c0.1,0.4-0.9,0.4-0.7,0.8c1.5-1.1,3.5-2.1,4-2.8l0.3-0.2c0-0.1,0.2-0.3,0.2-0.5
		c-1.1,0.8-1.6,0.6-2.9,1.9c0.3,0.1,0.6-0.6,0.8-0.3c-0.1,0.3-1.1,0.8-1,0.3c-2.4,1.3-5,3.8-6.7,4.9c0.9-0.8,1.8-1.5,2.4-2.2
		c0-0.5,1.2-1,0.4-0.2c1.5-1.6,3.7-2.6,5.3-4.1c-0.3,0.5,0.9-0.3,1-0.7c-2.5,1.4-3.6,2.5-5.8,3.5c0.1,0,0.1,0,0.1,0.1l-0.5,0.3
		c0.4,0-0.4,0.7-0.4,0.5c0-0.1,0.2-0.3,0.4-0.5l0-0.1c-1.3,1.2-2.5,2.2-3.2,2.9c0-0.6,1.6-1.3,1.7-1.8c-1.3,1-2,1.7-3.2,2.5
		c0.9-0.8,2-1.6,2.4-2.3c-1.7,1.4-3.2,2.5-4.4,3.4c1.6-1.6,3.7-2.9,4.7-4.4c1.3-0.7,2.5-2,4.3-2.9c-0.1-0.1,0.1-0.3,0-0.4
		c-3.9,2.7-6.6,5-9.6,7.8c-0.3,0.1-0.5,0.1-1,0.5l-0.5,0.7c0.2,0.1-0.8,0.8-0.8,0.7c-0.3,0.2-0.3,0.4-0.6,0.6
		c-0.1-0.1-0.1-0.2-0.3-0.1c-1.2,1.8-3.6,3.8-5,5.6l-0.1,0.2c0.2,0.2-0.6,0.6,0,0c-0.1-0.2-0.8,1-1,0.8c0.4-0.4,0.1-0.2,0-0.3
		c0.9-1.4,2.5-2.6,3.4-3.6c0,0.1-0.3,0.3-0.2,0.4c0.6-1.4,2.9-3.1,3.9-4.4c0,0.4,1.1-0.6,1-0.7c-0.9,0.7-1.4,0.8-2,1.1
		c-0.5,0.5-2.5,2.5-3,2.9c0.2-0.6,1.7-1.7,1.9-2.3l-6.5,6.9c-0.2,0.4,0.4,0,0,0.6c-0.5-0.6-2.1,2.2-2.6,2.2c0.5-0.8,1.7-1.7,1.9-2.2
		c-0.3,0.3-0.4,0.2-0.3,0c-1.8,1.9-3.8,4.5-4.7,6c1.2-1.3,1.9-2.5,3.1-3.8c-0.8,0.9-0.1,0.4-0.5,1c-0.7,0.6-1.7,2.2-2.9,3.6l0-0.3
		c-0.5,0.4-0.9,1.2-0.8,1.3c-0.7,0.6-0.7,0.9-1.4,1.8c0.2,0.4,0.4-0.6,0.5-0.4c0.2,0.1-0.4,0.6-0.6,0.9L370,35
		c-0.3,0.3-0.7,1-0.8,0.9c0.7-1-0.3,0.4-0.3,0l0.5-0.4l-0.1-0.1c-0.1,0.1-0.2,0.1-0.1-0.1l0.1,0.1l0.1-0.2c-0.2-0.2,0.6-0.6,0,0
		c0.2-0.1,1.3-1.4,1.3-1.7c-0.8,0.2-2.5,3.5-3.2,3.4c0.2-0.3,0.5-0.7,0.6-0.6l0.6-0.6c-0.1-0.1-0.2-0.1-0.1-0.3
		c0.4-0.3,1.1-1.5,0.7-0.5c0.6-0.7,1.2-1.4,0.9-1.4c0.3-0.2,0.6-0.3,0.7-0.8c0-1,2.2-2.1,2.4-3.3c0.9-0.7,1.9-1.9,2.5-3.1
		c0.8-0.2,1.2-1.9,2.2-2.2c-0.2,0.3-0.6,0.6-0.5,0.7c0.3-0.4,1-0.9,1-1.1c-0.9,0.9,1-1.8,1-1.1c0.3-0.1,0.3-0.2,0.4-0.5l-0.1-0.1
		c-0.1,0.1-0.3,0.3-0.3,0.2c0.2-0.2,0.7-0.9,0.8-0.7c0,0.1-0.2,0.3-0.4,0.5c0.7-0.3,0.9-1.7,0.9-0.9c2.6-3.2,3.8-4.8,6.9-6.9
		c-1,0.8-1.4,1-1.8,1.8c0.7-0.6,1.3-1.2,1.7-1.2c0.4-0.6,0.8-1,1.7-1.6c-0.1-0.5-1.2,1-1.4,0.9c1.1-1.3,2.4-1.7,2.8-2.6
		c-0.9,0.7-0.9,0.8-1.5,1.2c0.2-0.4,1.2-1.1,1.7-1.6c-4.7,3.4-9.6,8.3-13.2,12.5c-0.2-0.4-0.6,0.3-1,0.5c0.2-0.3,1-1.1,1.4-1.3
		c-0.4,0.2-0.6,0.8-0.2,0.4c0-0.3,1.4-1.2,1.5-1.8c-0.6,0.3-0.8,1-1.1,1c0.5-0.5,0.7-0.8,0.8-1.1c0.7-0.3,1.8-2.2,3.8-4
		c0.4-0.1,0.3,0.1,0.6,0c0.7-0.9,2.4-2.7,3.3-3.3c-0.1-0.1-0.4,0.1-0.2-0.2c0.3-0.4,2.5-1.9,2-1.9c-1.3,1.1-3.5,3.2-4.7,3.9
		c1.7-1.6,2.8-2.2,3.4-3.2c-0.2,0.2-0.4,0.3-0.2,0.1l0.2-0.1c0.1,0.3,1.8-1.3,1.4-1c-0.5,0.5-0.9,0.7-1.1,0.6
		c0.3-0.3,0.5-0.4,0.4-0.6c-0.6,0.3-1.3,1.2-1.7,1.3c0.1,0,0,0.1-0.1,0.2c0.2,0.1,0.4,0,0.3,0.3c-0.3,0.1-1,0.5-0.7,0.1
		c-0.9,0.7-2.4,1.7-2.7,2.5c-0.4-0.2-1,1.3-1.6,1.8c-0.5,0.3,0.1-0.6-0.5,0c-0.1,0.5-0.6,0.6-0.4,0.8c-0.8,0.5-1.5,1.9-2.6,2.6
		c-2.1,2.5-5,5-6,7c0.5-0.5,1.4-2.1,1.7-1.9c-0.2,0.3-3.8,4.3-3,3.9c-2.2,2.3-4,5-5.9,7.6c1-2.1,3.6-4.7,4.7-6.7
		c-1.7,2.1-3.7,4.8-5,6.7c2-3.6,4.7-6.1,7.4-10c0.1-0.1,1-1,0.5-1c-2.5,3.5-4,5-5.7,7.3c0.1-0.1,0.3-0.3,0.3-0.3
		c-0.1,0.1-0.3,0.3-0.3,0.3c-0.2,0.6-0.2,0-0.6,0.6c0.3,0.2-0.8,1.3-1.1,1.9c0.3-0.8-1,1-0.9,1.2c0.2-0.3,0.2,0.2,0.1,0.4
		c-1,1.5-1.6,2.4-2.1,3c0.2-0.8,1.7-2.4,1.9-3.1c-0.8,0.3-1.2,2.3-1.8,2.4c0.8-1.8,2.2-3.2,2.6-4.3c-0.5,0.7-1,1.6-1.8,2.5
		c0.3-0.6,0.8-1.2,0.6-1.4c-0.4,0.6-0.3,1-0.7,1.1c0.1,0.2-0.2,0.4-0.1,0.8l-0.4,0.2c-0.2,0.9-2.4,2.4-2.7,3.9
		c0.2-0.3,0.3-0.3,0.4-0.3c-0.3,0.5-0.4,0.3-0.6,0.6c0.1,0.1,0,0.3-0.2,0.6c-0.1-0.1,0.2-0.5,0.2-0.6l-0.1-0.1
		c-0.4,0.2-1.2,1.9-1.5,1.8c0.5-0.8,0.9-1.2,1.1-1.9c-0.4,0.4-0.6,0.4-1,0.9c0.7-0.9,0.7-1.1,1.4-2.2l0,0.3c0.4-0.3,0.4-0.8,0.8-1
		c0.1,0.3-1.1,1.4-0.8,1.6c1.4-2.2,3-3.8,3.8-5.8c-1,1.5-1.9,2.4-2.6,2.9c0.6-0.7,0.6-0.7,0.7-1.4c-2.2,2.6-3.3,4.7-5.2,7.2
		c-0.4,0.3,0-0.1-0.1-0.3c-0.6,0.8-0.7,1.4-1.3,2c1-2,2.2-3.4,2.6-4.9l-0.2,0.4c-0.3,0-0.5,0.6-0.3,0.4c-0.7,1.1-2,3.6-1.6,2.3
		c-1.2,2-1.9,3.3-3.4,5.3c0.2-0.4,0.8-1.1,0.4-1c-4.7,7.8-9,15.9-13.3,25c-2.8,6.1-5.4,12.6-7.8,19c-0.2,0.5-0.4,1.1-0.6,1.6
		c-0.6-0.6-1.2-1.2-1.7-1.8c-2.3-2.5-4.4-5.2-6-6.8c-1.3-1.3-2.5-2.3-3.7-3.6c-2.2-2.4-5.2-5.8-6.8-8.2c-1.5-1.2-3.4-5-5.7-7
		c-0.1,0.3-0.2,0.8-0.7,0.4c0.4,1.9-2.4,1.4-1.7,3.9c-0.2-0.4-0.4-0.8-0.8-1.3c-0.4,0.1,0.9,1.1,0.5,1.2c-0.9,0.6-1.3,0.7-0.9,2.3
		c-0.2-0.3-0.4-0.3-0.5-0.1c-0.1-0.3-0.5-0.7-0.7-0.8c0.6,0.8-0.2,0.3,0.3,1.1c-0.6-0.8-0.5,0.2-1.1-0.4c0.3,0.5,0.5,1,0.7,1.4
		c-0.3-0.1-0.7-0.4-1.2-1.2c-0.1,0.5-0.1,0.5,0.2,1.2l-0.8-0.1c0.2,0.4,0.1,0.7,0.2,1.2c-1.2-0.8-0.9,0.8-2.1-0.1
		c0,0.9-0.5,2.1-1.3,1.8c0.3,0.6-0.2,0.4,0.2,1.2c-0.7-0.8-0.8-0.4-0.8,0.1c-0.3-0.2-0.7-0.5-0.8-0.4c0,0.7,0.6,1.8-0.1,2.1
		c-0.4-0.6-0.5-0.6-0.9-1c0.3,2.6,2.7,6.2,6,10.1l5.1,5.8c3.8,4.4,7.6,9.5,11.8,14.1l3.1,3.2c2.6,2.5,3.9,4.6,8.5,8
		c2.7,1.4,5.9,3.4,11.4-0.2c5.4-5.2,3-4,4.3-5.5c1-2,1.7-3.6,2.2-5.1c7.2-20.1,16.9-38.1,26.5-53.7c2.7-4,5.7-9.8,9-13.7
		c2-2.5,4.1-5.7,6.1-7.8c0.3-0.3,0.6-0.4,1-0.9c0.1-0.6,1.3-1.2,1.7-2c0.3-0.8,2.2-2,2.3-3c0.9-0.6,1.5-1.3,2.2-2.1
		c-0.1,0.1-0.3,0.3-0.1,0c0.1-0.1,0.2-0.1,0.2-0.1c0.3-0.3,0.6-0.7,1-1l0,0.3c0.3-0.4,1.7-1.4,0.8-1c1.7-1.5,3.3-3.3,5.4-4.8
		c-0.5-0.2,0.9-1,0.2-0.3c0.7-0.2,0.5-0.7,0.9-0.7l0.3-0.3c0-0.1,0.4-0.4,0.5-0.3l-0.5,0.3c0.2,0.1,0.8-0.5,1-0.4
		c-0.1-0.1-0.2-0.2,0-0.3c0.2,0.3,0.9-0.9,0.8-0.3c0.6-0.3,0-0.4,0.6-0.7l0,0.3c0.6-0.2-0.1-0.3,0.3-0.5c0.4-0.1,0.3-0.3,0.7-0.3
		c0.9-0.9,2.3-1.6,2.5-2.3c0.2,0,0.1,0.1,0.1,0.2l2.1-1.4c-0.6,0.2-1.1,0.7-1.6,0.9c0-0.1-0.6-0.1,0-0.4c-0.2,0-1.1,0.5-1.1,0.7
		c0.2-0.2,0.3-0.1,0.4,0c-0.5,0.2-1.1,0.4-1.8,0.9c0.1,0.1,0.1,0.2,0.3,0.1c0,0,0.1-0.2,0.1-0.1l-0.1,0.1c0,0.5-1.2,0.6-1.6,0.8
		c0.4-0.3,0.7-0.5,1.1-0.6c0-0.1,0-0.2,0.2-0.4c-0.1,0-0.3,0-0.1-0.2l2-1.3c-0.3-0.2-1.4,0.6-0.5-0.2c-0.6,0.4-0.8,0.7-1,0.9
		c-0.4-0.5-1.1,0.8-2,1c-0.1,0.8-1.1,1.1-2.2,1.7c-0.2-0.2,1-0.5,0.8-0.8c-0.2,0.1-0.2,0-0.1-0.2l-0.4,0.1c0.2,0.2-0.4,0.5-0.6,0.7
		c0-0.1,0.2-0.5-0.2-0.3c-0.9,0.6-0.6,0.6-1,1.2c-0.3,0.2-0.3-0.2-0.5-0.1c-0.6,0.5-0.7,0.4-0.6,0.7c-0.6,0.5-0.6,0.5-0.4,0.1
		c-0.7,0.5-0.5,0.7-0.6,0.8c-0.8,0.5-1.1,0.7-1.5,0.8c1.1-1.2,3.2-2.8,4-3.4l-0.8,0.2c0.7-0.4,1.9-1.4,2.4-1.8
		c0.8-0.7,2-1.2,2.9-2.1c-0.1-0.2,0.6-0.7,0.9-0.7c-0.1-0.1,0-0.2,0.1-0.3c0.5-0.6,1.2-0.9,1.9-1.2c0.1-0.7,1.1-1,1.7-1.2
		c1.4-0.5,2.6-1.4,4.1-2.2c2.6-1.3,5.4-2.9,8-3.5C423.9,5.4,422.4,6.1,421.5,6.2 M402.2,13.8c-0.2,0.1-0.2,0-0.3,0
		C402.1,13.7,402.1,13.8,402.2,13.8 M401.6,14.1C402.3,13.7,401,14.6,401.6,14.1 M403.5,12.2C404.2,11.9,402.9,12.7,403.5,12.2
		 M401.6,13.3l0.4-0.1C402,13.4,401.3,13.7,401.6,13.3 M400,14C400.7,13.6,399.4,14.5,400,14 M401.1,12.5
		C401,12.2,401.9,12.1,401.1,12.5l0.4-0.1c0,0.1,0,0.1-0.1,0.2l-0.3,0.2C401.1,12.7,400.9,12.6,401.1,12.5 M401.1,11.3
		C401.8,11,400.5,11.8,401.1,11.3 M400.9,12.1C401.6,11.8,400.3,12.6,400.9,12.1 M400.5,11.8C399.2,12.5,401.1,11.4,400.5,11.8
		 M400,12.2C400.7,11.9,399,12.8,400,12.2 M400.5,13.4c0.1,0.1-1,0.8-0.9,0.5C399.9,13.8,400.2,13.7,400.5,13.4 M401.8,8.5
		C402.5,8.3,401,9.2,401.8,8.5 M392.9,14.1c-0.1,0.1-0.2,0-0.3,0C392.8,14,392.8,14.1,392.9,14.1 M392.9,15.6
		C393.5,15.2,391.7,16.5,392.9,15.6 M385,18.4c0.5-0.4-0.3,0.5-0.5,0.7C384,19.5,384.8,18.6,385,18.4 M376.6,26.2
		C377.2,25.6,375.7,27,376.6,26.2 M375.9,27C376.5,26.4,375.4,27.7,375.9,27 M385.9,15.1C386.5,14.6,385.3,15.7,385.9,15.1
		 M385,15.8c0,0.1-0.1,0.3-0.4,0.5C384.7,16.2,384.8,16,385,15.8 M382.9,17.8C383.6,17.3,382.4,18.5,382.9,17.8 M382.3,18.4l0.3-0.3
		c0.2,0.1-0.1,0.3-0.3,0.6L382.3,18.4z M380.4,20.7C381,20.1,379.9,21.3,380.4,20.7 M378.9,22.2c0.5-0.4-0.3,0.5-0.5,0.7
		C377.8,23.3,378.7,22.4,378.9,22.2 M361.6,39.3C362.2,38.6,361.2,40.1,361.6,39.3 M361.1,39.9C361.5,39.3,360.1,41.2,361.1,39.9
		 M359.9,40.7l0,0.3c0.1-0.2,0.2-0.4,0.2-0.4c0.5-0.7,0,0.6-0.2,0.4c-0.4,0.3-0.3,0.5-0.7,1.1C359.3,41.7,359.5,41,359.9,40.7
		 M358.7,42.7C357.9,43.8,359.2,42,358.7,42.7 M358.6,42.4c0.1,0.2-0.6,0.9-0.2,0.9l-0.4,0.5C357.9,43.4,358.1,43.1,358.6,42.4
		 M315.4,80.5C314.5,79.9,314.8,79.4,315.4,80.5 M347.6,57.8c0.1,0.1-0.4,0.9-0.2,0.9C347,59.3,347.3,58.3,347.6,57.8 M348,59.6
		c-0.3,0.1,0.1-0.5,0.3-0.9C348.4,58.8,348.3,59.2,348,59.6 M350.3,53.3c-0.4,0.6,0.2-0.6,0.4-0.8C351.1,51.9,350.5,53,350.3,53.3
		 M351.8,52.2C352.3,51.5,351.4,53,351.8,52.2 M353.5,50.2c-0.4,0.5-0.7,1-1.1,1.4c-0.2-0.1,0.2-1.4,0.5-1.2
		c0.1-0.2,0.1-0.3,0.3-0.6C353.5,49.6,353.4,49.8,353.5,50.2 M356.1,46.2C356.6,45.7,355.8,47.1,356.1,46.2 M354.2,49.9
		C354.7,49.2,353.8,50.7,354.2,49.9 M353.9,49.4c-0.2,0.2,0.3-0.7-0.2-0.4l0.3-0.6c-0.2-0.1,0.4-0.7,0.4-0.8c0.1,0.1-0.2,0.6,0,0.3
		c0,0.3-0.2,0.7,0.2,0.1C354.7,48.6,354.2,48.9,353.9,49.4 M355.1,48.4C355.6,47.7,354.8,49.2,355.1,48.4 M355.8,46.2
		c0.2,0-0.5,1.1-0.5,0.7C355.5,46.6,355.6,46.6,355.8,46.2 M355.8,47.9C356.3,47.2,355.1,48.9,355.8,47.9 M355.9,48.5
		c-0.1-0.1,0.2-0.5,0.4-0.8C356.2,47.9,356.1,48.3,355.9,48.5 M356.6,46.3C355.9,47.8,356.1,46.8,356.6,46.3
		C356.7,46.1,356.8,46.3,356.6,46.3 M356.9,46.2C357.4,45.6,356.5,47,356.9,46.2 M356.9,46c0.1-0.4,0.1-0.8-0.3,0
		c-0.1,0,0-0.4-0.1-0.1c0.3-0.7,0.3-1.1,0.9-1.8l-0.3,0.9c0.1,0.4,0.4-0.1,0.7-0.6C357.9,44.8,357.2,45.2,356.9,46 M358.5,44.8
		l0.2-0.4c0,0.1,0.1,0,0.2-0.1C359.1,44.3,358.5,45.2,358.5,44.8 M359.6,44.3C360.2,43.6,359.2,45,359.6,44.3 M358.8,45.2
		c-0.3,0.3,0-0.2,0.2-0.4c0.1-0.2,0-0.2-0.1-0.1c0-0.4,0.6-0.6,0.8-1.3C359.9,43.8,359.1,44.6,358.8,45.2 M361.9,42.3
		c0,0.2-0.2,0.3-0.4,0.5C361.5,42.6,361.7,42.5,361.9,42.3 M361.7,44C362.2,43.3,361.3,44.7,361.7,44 M360.6,41.8
		C361.1,41.5,360,42.2,360.6,41.8 M361.7,45.6c-0.1-0.2,0.6-0.9,0.8-1.3C362.3,44.9,362.1,45,361.7,45.6 M369.6,34.1
		C370.2,33.5,369.2,34.8,369.6,34.1 M369.7,33.3C370.3,32.7,369.2,34,369.7,33.3 M370.1,32.8C370.7,32.2,369.6,33.5,370.1,32.8
		 M370.5,32.3C371.1,31.7,370,33,370.5,32.3 M371.4,31.1C372,30.5,370.9,31.8,371.4,31.1 M372.6,29.6
		C373.2,29,372.1,30.3,372.6,29.6 M373.6,28.2C374.2,27.7,373.2,28.9,373.6,28.2 M374,28.1C374.6,27.5,373.6,28.8,374,28.1
		 M375.3,26.7C375.9,26.1,374.9,27.4,375.3,26.7 M377.1,23.7c-1.7,1.9-2.7,3.2-4,4.7c-0.1-0.1,0.1-0.4-0.2-0.2
		c-0.2-0.2,1-1.1,0.8-1.3c0.3-0.3,0.1,0.1,0.2,0.2c0.6-0.7,0.8-1.2,0.9-1.5c0.3-0.3,0.4-0.2,0.3,0C375.8,25,376.6,24,377.1,23.7
		 M372.6,29c-0.3,0.3-0.4,0.1-0.8,0.7c-0.2-0.3,0.6-0.6,0.5-1C372.8,28.3,372.3,29.1,372.6,29 M370.6,30.6c1.2-1.8,3.1-4.1,4-5.3
		C373.9,26.6,371.7,29.2,370.6,30.6 M375.6,24.8C376.2,24.4,375.2,25.6,375.6,24.8 M385.6,13.7c-0.3,0.5-1.4,1.3-2.1,1.9
		C383.8,15,385,14.2,385.6,13.7 M383.5,16.5C384.1,16,383,17.2,383.5,16.5 M381.8,17.1c0,0.1-0.1,0.3-0.3,0.6
		C381.5,17.6,381.5,17.4,381.8,17.1 M381.1,18C381.8,17.4,380.6,18.7,381.1,18 M380.1,19.1c0.3,0,0.5-0.8,0.7-0.5
		c0.6-0.5,2.2-2.7,2.7-2.6c-1.1,0.9-2.1,2.4-3.8,4C379.5,19.9,380.5,19.2,380.1,19.1 M379.5,19.7c0.1,0-0.7,1-0.3,0.9
		c-2.5,1.6-7.2,7.6-9.1,10.2C373.5,25.9,375.7,23.8,379.5,19.7 M370.4,30.7c0.1,0.1-0.1,0.4-0.4,0.8C369.6,31.5,370.2,31,370.4,30.7
		 M369.3,31.5c0,0.1-0.2,0.4-0.1,0.5C368.7,32.3,368.9,31.7,369.3,31.5 M368.7,32.4c0.2-0.2,0.2,0,0.3,0l0.4-0.5
		c0.2,0-0.6,0.9-0.8,1.3C368.5,33.1,368.9,32.6,368.7,32.4 M368.3,34C368.9,33.4,367.5,35,368.3,34 M367.3,35.4
		C367.9,34.8,366.8,36.1,367.3,35.4 M367,35.2C367.5,34.9,366.4,35.6,367,35.2 M366.5,36.4C367.1,35.8,366.1,37.2,366.5,36.4
		 M365.1,38c-0.1,0.2-0.2,0.1-0.3,0.1C365,37.9,365,38,365.1,38 M362.6,40.6c-0.3,0.2,1-1.6,1.4-2.2C364.3,38.2,362.9,40,362.6,40.6
		 M365,39.1c0.1,0.2-0.6,0.9-0.8,1.3C364.3,39.8,364.5,39.8,365,39.1 M364.8,41.1C365.4,40.5,364.4,41.8,364.8,41.1 M364.6,42
		c0.1-0.2,0.2-0.1,0.2-0.1C364.8,42.1,364.7,42,364.6,42 M364.9,41.4c0.3-0.6,0.5-0.5,0.7-0.8C365.7,40.8,364.9,42,364.9,41.4
		 M368.8,33.9c-0.3-0.6,2.2-2.9,2.8-4.1c0.1,0.1-0.1,0.4-0.4,0.8c0.6-0.3,0.8-0.9,1.6-1.7c-0.1-0.1-0.1-0.2,0.1-0.5l0.1,0.1
		l-0.3,0.3c-2.1,3.2-4.9,6-7.5,9.8C366.5,36.8,367.9,34.7,368.8,33.9 M365.8,39.7C365.8,39.6,365.8,39.6,365.8,39.7
		C365.7,39.8,365.2,40.4,365.8,39.7 M366.2,38.9c-0.1-0.1,0.5-0.8,0.6-1.1C367,38,366.4,38.8,366.2,38.9 M368.1,38.1
		c-0.1,0.1-0.4,0.1-0.3,0.3c-0.5,0.5,0.1-0.5,0.3-0.8C368.4,37.6,368.1,38,368.1,38.1 M368.1,37c-0.5,0.5-0.3,1.2-0.7,1
		c-0.1,0.7-0.5,0-0.4,0.5c-0.6,0.6,0.4-1.2,0.4-0.5c0.1-0.3,0-0.3,0-0.5l1.4-1.9c0.1,0.1-0.5,1-0.1,0.5
		C368.5,36.6,368.4,37.3,368.1,37 M382.7,20.2c0.3,0.2-0.9,0.9-0.1,0.8l-1.2,0.9c-0.3,0.3-0.1,0.5-0.2,0.7c-0.3,0.2-0.1-0.1-0.2-0.2
		c-0.5,0.6-0.4,0.5-1,1.1c0.9-0.4-0.9,0.7-1.1,1C380.5,22.6,381,22.1,382.7,20.2 M378.6,25C379.3,24.4,377.7,25.9,378.6,25
		 M378,25.6c-0.1,0.1-0.2,0-0.3,0C377.9,25.4,377.9,25.5,378,25.6 M377.5,26.3C378.2,25.8,377,27,377.5,26.3 M377.2,26.2
		c-0.2,0.3,0,0.4-0.4,0.8C376.6,26.9,376.8,26.6,377.2,26.2 M374,30.7C374.2,30,375,29.8,374,30.7 M373.9,30.6
		c-0.2,0.2-0.3,0.3-0.4,0.2C373.7,30.4,373.8,30.5,373.9,30.6 M372.2,32.5c0-0.3,0.7-1.1,0.8-0.7C372.6,32.3,372.4,32.3,372.2,32.5
		l0.1,0.1c-0.1,0.1-0.1,0.2-0.1,0.2c-0.4,0-0.9,1.3-1.4,1.3C371.5,33.4,371.5,33.2,372.2,32.5 M372.8,32.1
		C373.4,31.6,372.4,32.8,372.8,32.1 M369.4,37.5C369,37.4,369.9,36.7,369.4,37.5 M369.1,36.5c-0.5,0.4,0.4-0.6,0.6-0.9
		C370.2,35.2,369.3,36.2,369.1,36.5 M370.8,35.5C370.5,36.3,369.6,36.8,370.8,35.5C370.8,35.1,371.6,34.6,370.8,35.5 M371.9,33.9
		C370.9,35.1,372.4,33.4,371.9,33.9 M373.7,31.6c0.1-0.1,0.1-0.2,0.1-0.2c0.6-0.3-1,1.5-1.4,2.1C372.8,32.7,373.3,32,373.7,31.6
		 M373,33.2l-0.1-0.1l0.3-0.3l0.1,0.1L373,33.2z M373.5,32.2C374,31.6,372.7,33.2,373.5,32.2 M375.1,30.3c-0.3,0.3-0.4,0.1-0.8,0.7
		c0.7-0.6-0.1,0.4-0.3,0.8c-0.3-0.1,0.6-0.8,0.1-0.8l1-1.3C375.4,29.8,375,30.2,375.1,30.3 M375,29.4
		C375.1,29.8,374.3,30.2,375,29.4c-0.1-0.1-0.4,0.4-0.5,0.1c0.5-0.7,1.1-1.8,1.6-1.9c0.5-0.7,0.2,0.2,0,0l-1.3,1.7
		C375.1,29.1,375.4,28.8,375,29.4 M378.1,26.9c-1.1,0.3-2.1,2.6-2.7,2.6c1-1.4,2.1-2.4,3.4-4c0.2,0.2-0.3,0.6-0.1,0.8
		C378.5,26.3,377.8,26.8,378.1,26.9 M378.9,25.6C379.5,25.1,378.4,26.3,378.9,25.6 M379.3,25.1l0.2-0.1c0.1,0.4-0.3,0.2-0.5,0.4
		c0-0.1,0.3-0.4,0.5-0.7C379.8,24.5,379.5,24.9,379.3,25.1 M384.9,20.5l0.1,0.1l-0.3,0.3l-0.1-0.1L384.9,20.5z M383.2,23.9
		C383.7,23.5,382.8,24.6,383.2,23.9 M384.5,22.6l-0.1-0.1l0.3-0.3l0.1,0.1L384.5,22.6z M385.1,20.7
		C385.5,20.4,383.7,21.9,385.1,20.7 M385,20c-0.5,0.4,0.4-0.6,0.7-0.8C386.2,18.8,385.2,19.8,385,20 M408.5,15.8
		c0.2,0.1-0.7,0.4-0.5,0.6C407.4,16.6,408.2,16,408.5,15.8 M406.5,17.8C406.1,17.5,407.2,17.4,406.5,17.8
		C406.4,18.1,405.6,18.2,406.5,17.8 M404.9,18.8C405.6,18.5,404.4,19.2,404.9,18.8 M403.5,19.2C404.1,18.9,402.9,19.7,403.5,19.2
		 M401.4,21.4C401.9,21.1,401,22,401.4,21.4 M402.2,14.6C402.9,14.3,401.2,15.2,402.2,14.6 M401.9,15.6
		C401.8,15.3,402.6,15.2,401.9,15.6C401.8,15.9,401,16,401.9,15.6 M400.6,15.8l0.3-0.2c0.2,0.1-0.1,0.3-0.4,0.5L400.6,15.8z
		 M400.5,15.5c0.2,0.2-0.9,0.8-1,0.9C399.5,16.1,400.2,15.7,400.5,15.5 M399.9,17.1C400.5,16.7,399,17.8,399.9,17.1 M398.5,15.7
		C399.2,15.3,398,16.3,398.5,15.7 M398.2,13.7c0.2,0.1-0.6,0.7-0.5,0.3l0.3-0.3L398.2,13.7z M397.7,13.7
		C398.4,13.3,397.2,14.3,397.7,13.7 M398,15.2C398.6,14.8,397.4,15.8,398,15.2 M397.1,14.6C397.8,14.2,396.6,15.2,397.1,14.6
		 M397.5,17.3c0.7-0.7,1.3-1.4,2.2-1.9c-0.8,0.7-1.8,1.7-2.8,2.5c0-0.1,0.3-0.3,0.2-0.4c-0.1-0.1-0.3,0.2-0.5,0.3
		C396.6,17.5,397.5,16.9,397.5,17.3 M399.1,16.1C399.9,15.6,397.5,17.2,399.1,16.1 M397.7,19.3c0-0.3,0.5-0.6,0.9-1l0,0.1
		C398.6,18.7,398.1,19,397.7,19.3 M398.5,19.4C399.1,19,397.9,20,398.5,19.4 M397.9,22.9C398.5,22.4,397,23.5,397.9,22.9
		 M396.8,18.7C397.3,18.3,395.6,19.5,396.8,18.7 M397.7,22.7c0.4-0.1,0.2-0.3,0.6-0.4C398.5,22.3,397.6,23.1,397.7,22.7 M397.8,18.8
		c0.1,0.2-0.1,0.4-0.5,0.6C397,19.4,397.6,19,397.8,18.8 M397.4,18.6C398,18.3,397,19.2,397.4,18.6 M397.7,17.9c0.1-0.1,0.2,0,0.3,0
		C397.8,18,397.7,17.9,397.7,17.9 M396.1,19c0.1-0.4,2.1-1.8,2.5-2.2C397.8,17.6,396.4,18.8,396.1,19 M395.5,16.8l-0.2,0.1l-0.1-0.1
		c0.2-0.2,0.3-0.2,0.5-0.3C395.7,16.6,395.5,16.8,395.5,16.8 M395.8,16.9c0.1,0.2-0.3,0.5-0.5,0.6C395.2,17.3,395.6,17.1,395.8,16.9
		 M395,16.4C395.7,16.1,394.5,16.9,395,16.4 M394.8,17.2C395.5,16.8,394.3,17.8,394.8,17.2 M395.2,18.1c0.2,0.1-0.7,0.5-0.5,0.7
		c-0.3,0.3-0.3-0.2-0.4-0.2C394.6,18.3,394.9,18.1,395.2,18.1 M396.7,17.9c-0.3,0.6-0.7,0.7-1.4,1.3
		C395.4,18.9,396.3,18.3,396.7,17.9 M396.6,17.1c0,0.1-0.4,0.4-0.3,0.5l-0.2,0.1l-0.1-0.1C396.3,17.2,396.4,17.2,396.6,17.1
		 M396.6,16.7C396.2,17.4,395.7,17.2,396.6,16.7 M396.2,20.5C396.2,20.5,396,20.7,396.2,20.5C395.9,20.2,396.7,19.9,396.2,20.5
		 M396.2,14.3c0,0.4-0.6,0.6-0.9,1.1l0.1-0.3c-1,0.6-0.3,0.8-1.2,1.4C393.8,16.1,395.4,15.1,396.2,14.3 M393.9,16.5
		c-0.2,0.5-0.5,0.6-0.9,0.9C393.2,17,393.4,16.6,393.9,16.5 M394,18.8c0.1,0.2-0.2,0.6-0.5,0.9C393.3,19.3,393.5,19.3,394,18.8
		 M393.2,18.6C392.2,19.3,393.8,18.2,393.2,18.6 M393.3,16.5c0.1,0.1,0,0.2-0.2,0.4l-0.2,0.1C392.9,16.8,393.1,16.6,393.3,16.5
		 M392.4,17.6C393.1,17.2,391.9,18.2,392.4,17.6 M391.8,17.5c0-0.1,0.1-0.3,0.4-0.5C392.2,17.1,392.1,17.3,391.8,17.5 M392.6,21.5
		l-0.3,0.3l-0.1-0.1l0.3-0.3L392.6,21.5z M392.3,16.7c-0.3,0.3-0.6,0.5-0.8,0.6c-0.2,0.3,0.3,0.3-0.2,0.7l0-0.3l-1.1,0.9
		c-0.2-0.4,0.9-0.8,1.3-1.3C391.3,17.2,392.3,16.3,392.3,16.7 M390.7,18.3C390.6,18.3,390.9,18.1,390.7,18.3
		C391.1,18.6,390.3,18.8,390.7,18.3 M390.9,22.8C391.6,22.4,390.4,23.3,390.9,22.8 M390,18.2C390.7,17.7,389.5,18.8,390,18.2
		 M390.6,15.4c0.3-0.2,0,0.2-0.3,0.3c0.1,0.1,0.1,0.2,0.3,0.1c-0.1,0.4-0.5,0.1-1,0.7C389.5,16.3,390,15.9,390.6,15.4 M386.5,18.6
		c0.1-0.5,1.9-1.9,2.5-2.2l0.1,0.1c0.2-0.2,0.5-0.4,0.4-0.5c0.7-0.5-0.3,0.7-0.4,0.5C388.3,17.2,387,18.3,386.5,18.6 M389.8,18.6
		c0.1,0.2-0.3,0.5-0.6,0.8C389.1,19.2,389.5,18.9,389.8,18.6 M389.4,16.6C389.2,17.3,387.3,18.3,389.4,16.6 M390,19
		c0,0.1-0.3,0.4-0.6,0.6C389.3,19.4,389.7,19.1,390,19 M387.7,20.7l-0.1-0.1l0.5-0.3C388.1,20.4,387.9,20.6,387.7,20.7 M387.7,18.1
		C388.4,17.7,387.1,18.7,387.7,18.1 M388.6,17.6C387.1,18.6,389.1,17.2,388.6,17.6 M389,18.1C387.5,19.2,389.5,17.8,389,18.1
		 M389.9,22.5l0.1,0.1l-0.3,0.3l-0.1-0.1L389.9,22.5z M389.9,24.4c0.4-1,1.5-1.3,2.4-2.3C391.5,23.1,390.6,23.8,389.9,24.4
		 M391.9,22.9C392.6,22.5,391.4,23.5,391.9,22.9 M392.5,23.6C393.2,23.3,392.1,24.2,392.5,23.6 M392.8,22.1
		c-0.2-0.2-0.3-0.1-0.3-0.4c0.2-0.2,0.9-0.3,0.6-0.5c0.3-0.2,0.3,0.1,0.7-0.4c0,0,0.1-0.2,0.1-0.1l-0.1,0.1
		C393.4,21.3,393,21.8,392.8,22.1 M394.1,22.3l0.4-0.4C395,21.9,394.1,22.7,394.1,22.3 M394.8,25.4c0.2-0.1,0.2,0,0.1,0.1
		C394.7,25.7,394.9,25.4,394.8,25.4 M395.1,25.5C395.8,25,394.6,26,395.1,25.5 M394.3,18.1C394.9,17.7,393.7,18.7,394.3,18.1
		 M395.8,25C395.7,25.5,395.1,25.2,395.8,25C395.7,25,395.9,24.8,395.8,25 M395.3,20.5C394.3,21.2,395.9,20.1,395.3,20.5 M396,24.8
		c0.1-0.1,0.2,0,0.2,0C396.1,24.9,396.1,24.8,396,24.8 M397.2,24.2L397.2,24.2c-0.3,0.1-0.4,0.1-0.7,0.3c0.1-0.3,0-0.5-0.4,0
		c-0.1-0.1,0.5-0.5,0.7-0.7c-0.1,0.3,0.1,0.3,0.5,0c0.3-0.4-0.4,0-0.1-0.4c0.7-0.6-0.1,0.8,0.6,0.2C397.8,23.7,397.4,24,397.2,24.2
		 M398.1,23.2c0.1-0.1,0.2,0,0.2,0C398.2,23.3,398.2,23.2,398.1,23.2 M399,22.5C399.6,22.1,398.1,23.2,399,22.5 M398.5,22.7
		c-0.5,0.3,0.5-0.5,0.7-0.7C399.7,21.8,398.7,22.6,398.5,22.7 M400.3,21.5C401,21.1,399.8,22,400.3,21.5 M399.7,22.2
		C398.8,22.8,400.3,21.7,399.7,22.2 M399.3,21.6c-0.2-0.4,1.3-1.1,1.4-1.6C401,20.2,400,21.1,399.3,21.6 M400.2,16.1
		C401,15.9,399.7,16.6,400.2,16.1 M402.6,15.6C402.7,16,401.6,16.2,402.6,15.6 M401,16.8C401.1,16.8,400.8,16.9,401,16.8
		C401,16.7,401.3,16.6,401,16.8 M401.7,19.4c-0.1-0.2,0.4-0.5,0.8-0.8C402.8,18.8,401.9,19.1,401.7,19.4 M402.6,16.4L402.6,16.4
		l-0.4,0.1c-0.1,0.2-0.4,0.4-0.7,0.6c-0.1-0.2,0.3-0.4,0.7-0.7l0,0.1c0.1-0.1,0.1-0.2,0.1-0.3c0.2-0.1,0.4-0.1,0.7-0.3
		C403.1,16,403,16.2,402.6,16.4 M403.4,15.1C401.9,15.9,403.9,14.9,403.4,15.1 M404,15c-0.1,0.1-0.2,0.1-0.2,0.1
		C404,15.1,404.4,14.8,404,15 M404.3,17l0.3-0.2l0.2,0C404.9,16.8,404.1,17.3,404.3,17 M404.6,15c0.2-0.1,0.2,0,0.2,0.1
		C404.7,15.1,404.7,15,404.6,15 M406,15.8C406.5,15.9,405.4,16,406,15.8 M406.5,15.6c0.2-0.4,0.5-0.7,1.3-1.2
		C407.3,14.9,407.3,15.2,406.5,15.6 M412.1,10.7C412.7,10.5,410.8,11.1,412.1,10.7"/>
	<path class="st7" d="M421.2,9.1C420.2,9.5,421.9,8.9,421.2,9.1"/>
	<path class="st7" d="M421.3,9.3C420.7,9.7,422,9.1,421.3,9.3"/>
	<path class="st7" d="M418.8,6.8C419.4,6.6,417.5,7.3,418.8,6.8"/>
	<path class="st7" d="M418.7,7.1C417.7,7.5,419.4,6.9,418.7,7.1"/>
	<path class="st7" d="M419.6,10.1C419.1,10.6,420.2,9.9,419.6,10.1"/>
	<path class="st7" d="M419.4,10.5C418.8,10.9,420.1,10.3,419.4,10.5"/>
	<path class="st7" d="M417.8,7C417.2,7.4,418.6,6.7,417.8,7"/>
	<path class="st7" d="M417.8,7.9C417.2,8.4,418.5,7.7,417.8,7.9"/>
	<path class="st7" d="M418.4,10.7C417.7,11.1,419,10.5,418.4,10.7"/>
	<path class="st7" d="M417.1,8.1C416.5,8.5,417.8,7.9,417.1,8.1"/>
	<path class="st7" d="M417.8,10.4C416.8,10.8,418.5,10.1,417.8,10.4"/>
	<path class="st7" d="M416.4,7.3C415.7,7.8,417.1,7.1,416.4,7.3"/>
	<path class="st7" d="M416.8,8.5C417.1,8.3,416.8,8.4,416.8,8.5"/>
	<path class="st7" d="M416.4,8.4c-0.6,0.2-0.4,0.2-1,0.5C415.4,9,416.5,8.5,416.4,8.4"/>
	<path class="st7" d="M416.6,11.3C417.3,11.1,415.6,11.7,416.6,11.3"/>
	<path class="st7" d="M415,8c-0.3,0.1-1.6,0.7-1,0.6C414.3,8.4,415.6,7.9,415,8"/>
	<path class="st7" d="M415.2,9l0.2-0.1C415.3,8.8,415.2,8.9,415.2,9"/>
	<path class="st7" d="M413.8,8.1c0.2-0.1,1.2-0.6,0.7-0.4C414.2,7.8,413.2,8.2,413.8,8.1"/>
	<path class="st7" d="M413.8,7.1C414.7,6.8,412.1,7.7,413.8,7.1"/>
	<path class="st7" d="M414.3,8.6C413.2,9,415,8.4,414.3,8.6"/>
	<path class="st7" d="M415.7,11.8C415,12.2,416.3,11.6,415.7,11.8"/>
	<path class="st7" d="M415.6,12.1C415,12.5,416.3,11.9,415.6,12.1"/>
	<polygon class="st7" points="413.9,9.3 414.3,9.1 414.2,8.9 413.9,9.1 	"/>
	<path class="st7" d="M411.4,9.2c0.9-0.4,1.4-0.5,1.9-1C412.7,8.5,411.6,8.8,411.4,9.2"/>
	<path class="st7" d="M414.4,12.1C414.7,12.2,415.2,11.6,414.4,12.1"/>
	<path class="st7" d="M414.8,12.2C413.3,12.7,415.3,12,414.8,12.2"/>
	<path class="st7" d="M412.6,7.7C412,8.1,413.3,7.5,412.6,7.7"/>
	<path class="st7" d="M414.6,12.6C413.6,13,415.3,12.3,414.6,12.6"/>
	<path class="st7" d="M414.4,12.1C414,11.9,414,12.6,414.4,12.1"/>
	<path class="st7" d="M410.9,5.9C411.7,5.7,410.9,5.7,410.9,5.9"/>
	<path class="st7" d="M411.7,7C411.7,7,411.7,7,411.7,7c-0.2,0.1-0.3,0.1-0.3,0.1C411.5,7,411.6,7,411.7,7"/>
	<path class="st7" d="M414.5,13.2C413.9,13.6,415.2,13,414.5,13.2"/>
	<path class="st7" d="M411.8,7.9C411.2,8.3,412.6,7.7,411.8,7.9"/>
	<path class="st7" d="M413.6,11.8c-0.2,0.1-1.4,0.6-0.8,0.5C413.1,12.1,414.2,11.6,413.6,11.8"/>
	<path class="st7" d="M410.9,5.9C410.7,6.1,411,6,410.9,5.9"/>
	<path class="st7" d="M412.4,9.6C411.8,10,413.1,9.4,412.4,9.6"/>
	<path class="st7" d="M413.8,12.6C413.2,13,414.5,12.4,413.8,12.6"/>
	<path class="st7" d="M411.2,7.5C411.5,7.3,411.2,7.4,411.2,7.5"/>
	<path class="st7" d="M413.8,12.5C413.1,12.5,412.6,13.1,413.8,12.5"/>
	<path class="st7" d="M411.2,7.5C410.5,7.7,411.3,7.7,411.2,7.5"/>
	<path class="st7" d="M410.8,7.4c-0.6,0.3-2,0.7-1.8,1.1C409.4,8.1,411,7.5,410.8,7.4"/>
	<path class="st7" d="M411.2,7.9c-0.3,0.1-0.7,0.3-0.7,0.4C411,8.1,411.2,8.2,411.2,7.9"/>
	<path class="st7" d="M411.3,8.6C412,8.4,410,9.1,411.3,8.6"/>
	<path class="st7" d="M413.1,12.3C412.5,12.8,413.7,12.2,413.1,12.3"/>
	<path class="st7" d="M411.7,9.9c-0.6,0.2-2.3,1.1-1.9,1.2C410.3,10.6,412.1,9.9,411.7,9.9"/>
	<path class="st7" d="M413.5,13.7c-0.2,0.1-1.4,0.6-0.8,0.5C413,14,414.1,13.5,413.5,13.7"/>
	<path class="st7" d="M410.1,6.4c-0.1,0-0.1-0.2-0.3-0.1C409.9,6.4,409.9,6.5,410.1,6.4"/>
	<path class="st7" d="M411.1,8.5c-0.1,0-0.1-0.2-0.3-0.1C410.9,8.5,410.9,8.6,411.1,8.5"/>
	<path class="st7" d="M413.2,13C412,13.3,412.6,13.6,413.2,13"/>
	<path class="st7" d="M408.1,3.1C406.9,3.5,408.8,2.8,408.1,3.1"/>
	<path class="st7" d="M409.4,5.8C408.7,6.2,410.1,5.6,409.4,5.8"/>
	<path class="st7" d="M411.3,9.8C409.7,10.3,411.8,9.6,411.3,9.8"/>
	<path class="st7" d="M413.1,13.6C412.5,14,413.8,13.4,413.1,13.6"/>
	<path class="st7" d="M409.4,6.3C408.7,6.7,410.1,6,409.4,6.3"/>
	<path class="st7" d="M407.7,11.1c-0.2,0.5-1.1,0.6-1.8,1.5c1.3-0.7,3.8-2.7,5.2-3.2C409.7,9.5,408.7,11.1,407.7,11.1"/>
	<path class="st7" d="M409.3,6.6C409.3,7,409.8,6.4,409.3,6.6"/>
	<path class="st7" d="M410.4,8.8C409.7,8.8,410.9,8.8,410.4,8.8"/>
	<path class="st7" d="M412.4,13C411.8,13.4,413.1,12.8,412.4,13"/>
	<path class="st7" d="M407.9,4.2C407.3,4.6,408.7,4,407.9,4.2"/>
	<path class="st7" d="M410.3,9.1C409.2,9.5,411,8.8,410.3,9.1"/>
	<path class="st7" d="M408.8,6.9C408.2,7.4,409.5,6.6,408.8,6.9"/>
	<path class="st7" d="M409.4,9.4c0.2-0.2,0.6-0.4,0.6-0.5C409.7,8.9,409.4,9.2,409.4,9.4"/>
	<path class="st7" d="M411.8,13.3C411.2,13.8,412.4,13,411.8,13.3"/>
	<path class="st7" d="M407.2,7.7c0.3-0.2,1.7-1,1.1-0.8C408,7.1,406.7,7.9,407.2,7.7"/>
	<path class="st7" d="M409.1,8.9C408.5,9.4,409.8,8.5,409.1,8.9"/>
	<path class="st7" d="M411.6,13.9c-0.3,0.2-1.7,1-1.2,0.9C410.7,14.5,412.1,13.7,411.6,13.9"/>
	<path class="st7" d="M406.7,4.4C406,4.9,407.4,4,406.7,4.4"/>
	<path class="st7" d="M408.2,7.4l-0.7,0.4C407.3,8.1,408.3,7.5,408.2,7.4"/>
	<path class="st7" d="M409.2,9.4c-0.4,0.2-1.8,1-1.1,0.9C408.2,10,409.3,9.7,409.2,9.4"/>
	<path class="st7" d="M409.1,9.8C408.6,10.3,409.8,9.4,409.1,9.8"/>
	<path class="st7" d="M409.6,10.7C409,11.2,410.3,10.4,409.6,10.7"/>
	<path class="st7" d="M409.9,11.3C409.3,11.8,410.6,11,409.9,11.3"/>
	<path class="st7" d="M406.3,5.4C407.2,4.9,406.3,5,406.3,5.4"/>
	<path class="st7" d="M408.5,8.9C409.2,8.6,407.5,9.5,408.5,8.9"/>
	<path class="st7" d="M411,13.9C411.2,13.7,411,13.8,411,13.9"/>
	<path class="st7" d="M399,8.1c0.9-0.6,1.4-1.1,2.1-1.3c1.3-1,2.7-1.8,4.8-3.2l0-0.1c-1.3,0.8-2.7,1.7-4.6,3c0.1-0.2,0-0.2-0.1-0.2
		c-1,0.7-0.7,1-1.8,1.4C399,7.8,398.9,8,399,8.1"/>
	<path class="st7" d="M406,3.9c-0.7,0.5-1.9,1.1-2.2,1.5C404.8,4.9,405.3,4.8,406,3.9"/>
	<path class="st7" d="M404.7,5.5c-0.1,0.6,1.5-0.6,1.6-0.8C405.8,4.7,405,5.7,404.7,5.5"/>
	<path class="st7" d="M411,13.9l-0.5,0.3C410.6,14.4,411.3,14.1,411,13.9"/>
	<path class="st7" d="M408.3,9.4C408.9,9.1,407,10.1,408.3,9.4"/>
	<path class="st7" d="M411,14.7C410.5,15.2,411.7,14.4,411,14.7"/>
	<path class="st7" d="M405.7,5.6c-0.2,0.4,0.7-0.1,0.6-0.3l-0.2,0L405.7,5.6z"/>
	<path class="st7" d="M405.3,6.1c-0.7,0.4-0.4,0.5-1,0.7l0.1,0.2c0.4-0.1,1.6-1,2-1.4C406,5.9,405.5,6.2,405.3,6.1"/>
	<path class="st7" d="M407.6,9.3c0.2-0.1,0.2,0,0.2,0.1C408.5,8.9,407.7,8.9,407.6,9.3"/>
	<path class="st7" d="M410,13.2C409.5,13.7,410.7,12.9,410,13.2"/>
	<path class="st7" d="M407.6,8.5c-0.6,0.5-1.8,1-2.1,1.5c0.2-0.1,0.4-0.2,0.4-0.1c-0.3,0.3-1.3,0.7-1.1,0.9c0.8-0.7,1.3-0.7,1.7-1.3
		c-0.2,0.1-0.5,0.3-0.5,0.2C406.2,9.2,407.9,8.7,407.6,8.5"/>
	<path class="st7" d="M408.6,10.4c-0.1,0-0.1-0.2-0.2-0.1C408.4,10.3,408.4,10.5,408.6,10.4"/>
	<path class="st7" d="M410.4,14.3l0.2-0.1C410.5,14.2,410.4,14.3,410.4,14.3"/>
	<path class="st7" d="M405.2,5C405.9,4.6,405.1,4.7,405.2,5"/>
	<path class="st7" d="M407.9,9.4C407.1,9.8,408.2,9.6,407.9,9.4"/>
	<path class="st7" d="M410.4,14.3C410.2,14.5,410.5,14.4,410.4,14.3"/>
	<path class="st7" d="M407.5,9C407.1,8.9,406.6,9.6,407.5,9"/>
	<path class="st7" d="M408.5,11.5C407.5,12,409.2,11.1,408.5,11.5"/>
	<path class="st7" d="M405.2,5C404.9,5.2,405.2,5.1,405.2,5"/>
	<path class="st7" d="M405.4,5.9C405.6,5.7,405.3,5.8,405.4,5.9"/>
	<path class="st7" d="M406.5,8.4C406.9,8.5,406.9,7.9,406.5,8.4"/>
	<path class="st7" d="M407.9,10.7C407.3,11.2,408.6,10.4,407.9,10.7"/>
	<path class="st7" d="M409.5,13.7C408.9,14.2,410.1,13.4,409.5,13.7"/>
	<path class="st7" d="M405.4,5.9c-0.2,0.1-0.1,0.1-0.1,0.2C405.4,6,405.4,6,405.4,5.9"/>
	<path class="st7" d="M406.7,8.8C406.1,9.4,407.4,8.5,406.7,8.8"/>
	<path class="st7" d="M407.4,10.6C407.6,11,408.1,10.2,407.4,10.6"/>
	<path class="st7" d="M405.6,9.2c0.4-0.3,0.8-0.5,1-0.7l0-0.1C406,8.7,405.5,9,405.6,9.2"/>
	<path class="st7" d="M403.4,3.5C402.1,4.2,404.1,3.1,403.4,3.5"/>
	<path class="st7" d="M406,8.3C405.4,8.9,406.7,8,406,8.3"/>
	<path class="st7" d="M407.4,11C406.4,11.6,408.1,10.6,407.4,11"/>
	<path class="st7" d="M408.2,12.4L408.2,12.4C408.4,12.4,408.3,12.4,408.2,12.4"/>
	<path class="st7" d="M404.7,6.3C404.1,6.8,405.4,5.9,404.7,6.3"/>
	<path class="st7" d="M408.2,12.5C408,12.7,408.3,12.6,408.2,12.5"/>
	<path class="st7" d="M404.6,13l1-0.6c-0.2-0.5,1.1-0.8,1.6-1.5c-0.1-0.3-0.6,0.1-1.1,0.4c-0.1-0.1,0.5-0.7,0-0.4
		c0,0.2-0.1,0.1-0.3,0.2c0.4,0.4-1.2,1.2-1.9,2.1c0.8-0.4,1-0.7,1.5-0.9C405.5,12.4,403.9,13.2,404.6,13 M406.1,11.4
		C406.7,11.4,405.5,11.6,406.1,11.4"/>
	<path class="st7" d="M407.6,12.2C407,12.3,408.1,12.2,407.6,12.2"/>
	<path class="st7" d="M408.1,14.6C408.5,14.6,409,13.9,408.1,14.6"/>
	<path class="st7" d="M405.4,8.9C405.6,8.7,405.3,8.8,405.4,8.9"/>
	<path class="st7" d="M403.8,10.5l-1,1c0.8-0.6,3-1.8,2.9-2C405.1,9.8,404,10.8,403.8,10.5"/>
	<path class="st7" d="M409.5,16.5C408.6,17,410.1,16.2,409.5,16.5"/>
	<path class="st7" d="M402.6,4.1C401.5,4.7,403.3,3.6,402.6,4.1"/>
	<path class="st7" d="M403.5,5.8c0.2-0.1,0.1-0.3-0.1-0.2C403.5,5.7,403.2,5.9,403.5,5.8"/>
	<path class="st7" d="M404.3,6.8C404.1,6.6,403.6,7.4,404.3,6.8"/>
	<path class="st7" d="M404.4,7.1C403.7,7.5,404.5,7.3,404.4,7.1"/>
	<path class="st7" d="M405.4,8.9C404.5,9.3,405.3,9.2,405.4,8.9"/>
	<path class="st7" d="M404.6,8.2C404,8.7,405.3,7.9,404.6,8.2"/>
	<path class="st7" d="M405.1,8.7l-0.2,0.1C405,8.9,405.1,8.8,405.1,8.7"/>
	<path class="st7" d="M402.6,7.1c0.6-0.2,0.5-0.4,1.1-0.6C403.8,6.1,402.5,7,402.6,7.1"/>
	<path class="st7" d="M405,9.4C404.5,10,405.6,9.2,405,9.4"/>
	<path class="st7" d="M407.9,15.4C408.8,15.1,408,14.8,407.9,15.4"/>
	<path class="st7" d="M403.9,11.1c0.6-0.6,1.3-0.7,1.4-1.1C404.8,10.3,403.8,10.8,403.9,11.1"/>
	<path class="st7" d="M403,7.9C403.5,7.9,404.1,7.1,403,7.9"/>
	<path class="st7" d="M404.5,9.3C403.5,9.9,405.2,8.9,404.5,9.3"/>
	<path class="st7" d="M408.7,17C407.8,17.5,409.4,16.7,408.7,17"/>
	<path class="st7" d="M402.6,6.3C402,6.8,403.3,5.9,402.6,6.3"/>
	<path class="st7" d="M404.3,10.2C403.7,10.7,405,9.9,404.3,10.2"/>
	<path class="st7" d="M405.3,11.5c-0.3,0.2-1,0.5-0.9,0.7C404.9,11.7,405.3,11.8,405.3,11.5"/>
	<path class="st7" d="M405.9,12.6l-0.2,0.1C405.8,12.8,405.9,12.7,405.9,12.6"/>
	<path class="st7" d="M404.8,11l-0.7,0.3C403.9,11.7,404.9,11.1,404.8,11"/>
	<path class="st7" d="M407.2,15.7C406.6,16.2,407.9,15.4,407.2,15.7"/>
	<path class="st7" d="M401.9,6.7C402,6.7,402,6.7,401.9,6.7C401.7,6.8,400.9,7.2,401.9,6.7"/>
	<path class="st7" d="M403.7,9.9C403.1,10.5,404.4,9.6,403.7,9.9"/>
	<path class="st7" d="M401.9,7.1C402.6,6.7,400.9,7.7,401.9,7.1"/>
	<path class="st7" d="M402.8,9.2C401.3,10,403.4,8.9,402.8,9.2"/>
	<path class="st7" d="M402.9,9.3C403.6,9,401.6,10,402.9,9.3"/>
	<path class="st7" d="M404.7,13.2C404.9,13,404.6,13.1,404.7,13.2"/>
	<path class="st7" d="M401,6.8C400.8,7,401.1,6.8,401,6.8"/>
	<path class="st7" d="M401.2,7.6C402,7.2,400.2,8.2,401.2,7.6"/>
	<path class="st7" d="M400.9,7.4C400.3,7.9,401.6,7,400.9,7.4"/>
	<path class="st7" d="M403.5,11.8C403.8,11.2,402.8,12.1,403.5,11.8"/>
	<path class="st7" d="M403.8,12.4c-0.2,0.2-1.3,0.8-0.8,0.6C403.3,12.9,404.4,12.2,403.8,12.4"/>
	<path class="st7" d="M403.7,12.7C403.1,13.2,404.4,12.4,403.7,12.7"/>
	<path class="st7" d="M401.9,10C401.3,10.5,402.6,9.6,401.9,10"/>
	<path class="st7" d="M403.4,13.7c0.2,0,0.9-0.3,0.6-0.5C403.8,13.4,403.4,13.6,403.4,13.7"/>
	<path class="st7" d="M406,17C405.5,17.5,406.7,16.7,406,17"/>
	<path class="st7" d="M405.7,16.8C405.2,17.2,406.4,16.6,405.7,16.8"/>
	<path class="st7" d="M400.2,7.8C399.6,8.3,400.9,7.5,400.2,7.8"/>
	<path class="st7" d="M402.3,11.8C402.8,11.9,402.7,11.2,402.3,11.8"/>
	<path class="st7" d="M401.3,10.1C399.8,10.9,401.8,9.9,401.3,10.1"/>
	<path class="st7" d="M402.2,11.7C402.4,11.5,402.2,11.6,402.2,11.7"/>
	<path class="st7" d="M400.3,10.4C401.5,9.9,400.7,9.8,400.3,10.4"/>
	<path class="st7" d="M399.2,7.7C399.4,7.4,399.1,7.6,399.2,7.7"/>
	<path class="st7" d="M399.7,8.6C399.1,9.1,400.4,8.2,399.7,8.6"/>
	<path class="st7" d="M405.1,17.2c-0.7,0.3-1.1,0.9-1.4,0.9C403.9,18.3,405.3,17.2,405.1,17.2"/>
	<path class="st7" d="M400.9,11C399.9,11.5,401.6,10.6,400.9,11"/>
	<path class="st7" d="M401.8,12.5C401.3,13.1,402.5,12.2,401.8,12.5"/>
	<path class="st7" d="M398.5,8.9c0.3-0.3,0.7-0.2,0.7-0.4c-0.2,0.1-0.2,0-0.1-0.2C398.7,8.6,398.5,8.8,398.5,8.9"/>
	<path class="st7" d="M399.8,11.9c-0.2-0.1,0.8-0.5,0.6-0.6C400,11.5,399.2,12.1,399.8,11.9"/>
	<path class="st7" d="M399.3,11C400,10.6,398.2,11.5,399.3,11"/>
	<path class="st7" d="M402.5,16.3l0.2-0.1C402.6,16.1,402.5,16.3,402.5,16.3"/>
	<path class="st7" d="M397.5,9.6C396.8,10.1,398.2,9.3,397.5,9.6"/>
	<path class="st7" d="M398.7,11.6C398.1,12.1,399.5,11.3,398.7,11.6"/>
	<path class="st7" d="M399,12C398.4,12.5,399.7,11.7,399,12"/>
	<path class="st7" d="M404.1,20.5C403.6,21,404.8,20.3,404.1,20.5"/>
	<path class="st7" d="M397.1,9.8c-1,0.4-1.7,1.5-3,2.2C394.5,12.3,396.9,10.2,397.1,9.8"/>
	<path class="st7" d="M398.3,11.7C397.1,12.2,397.7,12.4,398.3,11.7"/>
	<path class="st7" d="M398.5,12.3C397.9,12.8,399.2,12,398.5,12.3"/>
	<path class="st7" d="M403.9,20.5C403.7,20.7,403.9,20.6,403.9,20.5"/>
	<path class="st7" d="M396.1,9C395.5,9.5,396.9,8.7,396.1,9"/>
	<path class="st7" d="M398.3,12.1c-0.3,0.2-0.7,0.5-0.7,0.7C398,12.5,398.4,12.3,398.3,12.1"/>
	<path class="st7" d="M396.2,9.5C396.9,9.1,395.1,10.1,396.2,9.5"/>
	<path class="st7" d="M396.5,10.8c-0.2,0.1-0.1,0.1-0.1,0.2C396.5,10.9,396.5,10.8,396.5,10.8"/>
	<path class="st7" d="M393.8,8.1C393.2,8.7,394.5,7.6,393.8,8.1"/>
	<path class="st7" d="M394.1,8.6C393.6,9.2,394.8,8.2,394.1,8.6"/>
	<path class="st7" d="M397.1,13.5l0.1,0.1C397.4,13.5,397.3,13.4,397.1,13.5"/>
	<path class="st7" d="M392.9,9C393.6,8.8,393.2,8.3,392.9,9"/>
	<path class="st7" d="M393.7,9.9l0.3-0.3c0-0.2-0.3,0.1-0.6,0.3l0,0.1L393.7,9.9z"/>
	<path class="st7" d="M396,13.7C395.5,14.3,396.7,13.2,396,13.7"/>
	<path class="st7" d="M392.9,9C392.7,9.2,392.9,9.1,392.9,9"/>
	<path class="st7" d="M392.8,9.3C392.2,9.9,393.5,8.8,392.8,9.3"/>
	<path class="st7" d="M392.6,9.8l0,0.4l0.6-0.5C393.2,9.3,392.8,9.7,392.6,9.8"/>
	<path class="st7" d="M391.3,8.5C392,8.2,391.8,7.6,391.3,8.5"/>
	<path class="st7" d="M393.4,10.1C392.7,10.3,393.1,10.8,393.4,10.1"/>
	<path class="st7" d="M401.6,22.7C401.1,23.3,402.2,22.3,401.6,22.7"/>
	<path class="st7" d="M391.6,10.2c0.2-0.2,1.2-1,0.6-0.6C392,9.7,391.1,10.5,391.6,10.2"/>
	<path class="st7" d="M393.4,11.3C392.4,12,394.1,10.8,393.4,11.3"/>
	<path class="st7" d="M394.5,14.7l0.2,0.2c0.5-0.4,0.6-0.6,0.6-0.9l-0.5,0.3C394.9,14.5,394.8,14.6,394.5,14.7"/>
	<path class="st7" d="M391.3,8.5C391.1,8.8,391.4,8.6,391.3,8.5"/>
	<path class="st7" d="M391.2,9.2C391.7,9.2,391.6,8.5,391.2,9.2"/>
	<path class="st7" d="M391.5,9.2C389.8,10.4,391.3,9.8,391.5,9.2"/>
	<path class="st7" d="M392.3,10.7c0.1,0,0.1,0.1,0.3,0C392.5,10.7,392.4,10.6,392.3,10.7"/>
	<path class="st7" d="M391,9.3l0.2-0.1C391.1,9.1,391,9.2,391,9.3"/>
	<path class="st7" d="M391.7,10.2C391.1,10.9,392.4,9.8,391.7,10.2"/>
	<path class="st7" d="M391,9.3l-0.7,0.5C390.2,10.2,391.2,9.4,391,9.3"/>
	<path class="st7" d="M392.6,12C392.1,12.6,393.3,11.5,392.6,12"/>
	<path class="st7" d="M400.2,23.8C399.7,24.4,400.8,23.4,400.2,23.8"/>
	<path class="st7" d="M390.8,11.1C390.2,11.7,391.5,10.7,390.8,11.1"/>
	<path class="st7" d="M390.5,11.8C391,11.7,391.5,10.9,390.5,11.8"/>
	<path class="st7" d="M389.6,9.9C390.3,9.4,388.6,10.7,389.6,9.9"/>
	<path class="st7" d="M390.9,13.5c0.2-0.2,1.2-1,0.6-0.6C391.3,13.1,390.4,13.9,390.9,13.5"/>
	<path class="st7" d="M389.4,10.6C388.4,11.3,390.1,10.1,389.4,10.6"/>
	<path class="st7" d="M399.3,24.8c-0.3,0.3-0.4,0.1-0.8,0.5C398.5,25.7,399.4,24.9,399.3,24.8"/>
	<path class="st7" d="M390.6,13c-0.1,0-0.1-0.1-0.3,0C390.4,13,390.4,13.1,390.6,13"/>
	<path class="st7" d="M388.2,11.1c0.2-0.2,0.3-0.1,0.5-0.3l-0.2-0.2l-0.5,0.4L388.2,11.1z"/>
	<path class="st7" d="M387.3,9.9C386.7,10.5,388,9.4,387.3,9.9"/>
	<path class="st7" d="M387.3,10.3C388,9.8,386.3,11,387.3,10.3"/>
	<path class="st7" d="M389.7,13.6C389.2,14.2,390.4,13.2,389.7,13.6"/>
	<path class="st7" d="M387.4,10.8C386.8,11.4,388.1,10.3,387.4,10.8"/>
	<path class="st7" d="M388.4,12.1C387.8,12.7,389.1,11.7,388.4,12.1"/>
	<path class="st7" d="M397.1,24.1l0.1-0.1C397.2,23.9,397.1,24,397.1,24.1"/>
	<path class="st7" d="M386.8,10.3C385.5,11.2,387.4,9.8,386.8,10.3"/>
	<path class="st7" d="M387.4,15.1c0.6-0.3,1.5-1,1.9-1.7C388.2,14.3,388.1,14.4,387.4,15.1"/>
	<path class="st7" d="M389.7,14.2C389.1,14.9,390.4,13.8,389.7,14.2"/>
	<path class="st7" d="M389.9,14.2l-0.5,0.4C389.4,15.1,390.3,14.3,389.9,14.2"/>
	<path class="st7" d="M387.3,11.3C387.8,11,385.7,12.4,387.3,11.3"/>
	<path class="st7" d="M387.4,12.9l0.1,0.1c0.3,0.2,1-1,0.4-0.5C387.9,12.7,387.7,12.7,387.4,12.9"/>
	<path class="st7" d="M384.2,12.6c0.5-0.4,2.2-1.7,1.8-1.6C385.5,11.4,383.8,12.7,384.2,12.6"/>
	<path class="st7" d="M386.2,11.3C385.6,12,386.9,10.9,386.2,11.3"/>
	<path class="st7" d="M388.6,14.6C387.1,15.6,389.1,14.2,388.6,14.6"/>
	<path class="st7" d="M388.5,15.7c-0.1,0-0.1-0.1-0.3,0C388.3,15.8,388.3,15.9,388.5,15.7"/>
	<path class="st7" d="M387.7,15.4C387,15.6,387.4,16,387.7,15.4"/>
	<path class="st7" d="M387.9,15.7C386.9,16.4,388,16.1,387.9,15.7"/>
	<path class="st7" d="M387.2,15.2c-0.8,0.7-1.2,1.1-1.5,1.4l0.1,0.1c0.5-0.6,1.4-0.9,1.4-1.2C386.8,15.6,387.3,15.3,387.2,15.2"/>
	<path class="st7" d="M387.6,17C387.4,16.8,387,17.6,387.6,17"/>
	<path class="st7" d="M384.3,13.8C385,13.4,383,14.8,384.3,13.8"/>
	<path class="st7" d="M386.8,17.6C387,17.4,386.7,17.6,386.8,17.6"/>
	<path class="st7" d="M383.1,13.4C382.1,14.1,383.8,12.8,383.1,13.4"/>
	<path class="st7" d="M384.9,16.7c0.3-0.1,0.7-0.4,0.6-0.6C385.3,16.3,384.9,16.5,384.9,16.7"/>
	<path class="st7" d="M385.7,16.6L385.7,16.6l-1.1,0.9l0.1,0.1c0.2-0.1,0.5-0.3,0.5-0.4l0.5-0.4C385.6,16.7,385.6,16.7,385.7,16.6"
		/>
	<path class="st7" d="M385.8,16.7l-0.2,0.1C385.7,16.8,385.8,16.7,385.8,16.7"/>
	<path class="st7" d="M383.5,14.5C382.9,15.2,384.2,14.1,383.5,14.5"/>
	<path class="st7" d="M385,17.8c0.3-0.3,0.4-0.2,0.7-0.5l0-0.3C385.6,17.2,384.9,17.6,385,17.8"/>
	<path class="st7" d="M382.5,14.3C382,15,383.2,13.8,382.5,14.3"/>
	<path class="st7" d="M383.8,17.8c0.3-0.4,1-0.9,1-1.1C384.4,16.8,383.9,17.5,383.8,17.8"/>
	<path class="st7" d="M382.2,14.2C380.7,15.5,382.6,13.8,382.2,14.2"/>
	<path class="st7" d="M382.1,14.9c-0.1,0.1-0.7,0.4-0.6,0.6C381.8,15.1,382.2,15.2,382.1,14.9"/>
	<path class="st7" d="M382,15.3C381.4,16,382.6,14.8,382,15.3"/>
	<path class="st7" d="M381.3,15.2c-0.6,0.3-1.7,1.7-2.4,2.5l0.1,0.1C379.5,17,380.7,16.2,381.3,15.2"/>
	<path class="st7" d="M381.4,16C381.9,15.4,380.2,17,381.4,16"/>
	<path class="st7" d="M382.7,19.6c0.3,0,1.1-0.9,1-1.1c-1,0.6-2.2,2.4-3.7,3.7C380.9,21.9,382,20.5,382.7,19.6"/>
	<path class="st7" d="M382.5,17.4c-0.4,0.4-0.5,0.6-0.3,0.7C382.7,17.7,382.4,17.6,382.5,17.4"/>
	<path class="st7" d="M380,15.3C379.5,16,380.7,14.8,380,15.3"/>
	<path class="st7" d="M382.7,18.8C382.2,19.5,383.3,18.3,382.7,18.8"/>
	<path class="st7" d="M380.3,17.4C380,18.1,381,17,380.3,17.4"/>
	<path class="st7" d="M380.5,17.6C380,18.3,381.2,17.1,380.5,17.6"/>
	<path class="st7" d="M381.4,18.6c-0.2,0.2-1.1,1.1-0.5,0.7C381,19.1,381.9,18.2,381.4,18.6"/>
	<path class="st7" d="M382.1,19.5C381.6,20.1,382.7,18.9,382.1,19.5"/>
	<path class="st7" d="M380.1,18.1C380.5,17.7,378.7,19.3,380.1,18.1"/>
	<path class="st7" d="M380.8,18.6C380.7,18.9,380.9,18.7,380.8,18.6"/>
	<path class="st7" d="M381.1,19.3C379.7,20.5,381.6,18.9,381.1,19.3"/>
	<path class="st7" d="M377.8,16.4C377.3,17.1,378.5,15.9,377.8,16.4"/>
	<path class="st7" d="M377.8,19.1c0.5-0.5,0.5-0.8,1.1-1.3C378.5,18,377.6,19,377.8,19.1"/>
	<path class="st7" d="M382.3,21.9C382.7,21.5,380.9,23.1,382.3,21.9"/>
	<path class="st7" d="M378.5,18.6C378,19.3,379.2,18,378.5,18.6"/>
	<path class="st7" d="M381.4,22.8C382,22.3,380.5,23.7,381.4,22.8"/>
	<path class="st7" d="M378.2,19.5C377.7,20.2,378.9,19,378.2,19.5"/>
	<path class="st7" d="M378.9,20.6C378.2,20.9,378.7,21.3,378.9,20.6"/>
	<path class="st7" d="M378,20.3C377.5,20.9,378.7,19.7,378,20.3"/>
	<path class="st7" d="M377.7,20.3C377.2,21,378.4,19.7,377.7,20.3"/>
	<path class="st7" d="M380.9,23.8C381.1,23.5,380.8,23.7,380.9,23.8"/>
	<path class="st7" d="M375.9,18.5C376.4,18,374.6,19.6,375.9,18.5"/>
	<path class="st7" d="M380,22.8C379.8,22.2,379.5,23.1,380,22.8"/>
	<path class="st7" d="M376.6,21C377.9,19.4,376.2,21,376.6,21"/>
	<path class="st7" d="M379.4,22.4C379.2,22.7,379.5,22.5,379.4,22.4"/>
	<path class="st7" d="M377.2,20.6C376.3,21.5,377.8,20,377.2,20.6"/>
	<path class="st7" d="M380.3,24C379.8,24.7,380.9,23.5,380.3,24"/>
	<path class="st7" d="M377.3,21c-0.3,0.4-1.7,1.7-1.3,1.5C376.3,22.1,377.7,20.8,377.3,21"/>
	<path class="st7" d="M379.1,23.4C379.8,22.8,379,23.2,379.1,23.4"/>
	<path class="st7" d="M379.3,23.6c0-0.1,0.2-0.3,0.2-0.4l-0.3,0.2l-0.1,0.2C379,23.6,379.1,23.7,379.3,23.6"/>
	<path class="st7" d="M376.6,21C376.8,21.1,377.2,20.2,376.6,21"/>
	<path class="st7" d="M376.3,20.6c-0.2,0.1-3.9,4.3-4,4.3c-0.1-0.1,1.5-1.5,0.6-0.9c-0.3,0.2-0.9,1.2-0.9,1.2l0.2,0.2
		C373.3,23.7,375.1,22.2,376.3,20.6"/>
	<path class="st7" d="M377.6,24.8c0.1,0.4,1-0.5,1.2-0.9l-0.1-0.1c-0.4,0.2-0.2,0.3-0.7,0.8C378,24.5,377.8,24.7,377.6,24.8"/>
	<path class="st7" d="M375.8,21.6C374.8,22.5,376.4,21,375.8,21.6"/>
	<path class="st7" d="M375.7,21.9C375.2,22.6,376.4,21.4,375.7,21.9"/>
	<path class="st7" d="M375.8,22.9c-0.1,0-0.1-0.1-0.3,0C375.6,22.9,375.6,23,375.8,22.9"/>
	<path class="st7" d="M377.1,24.9C376.2,25.8,377.7,24.3,377.1,24.9"/>
	<path class="st7" d="M373.8,21.8C373.3,22.5,374.5,21.2,373.8,21.8"/>
	<polygon class="st7" points="375.2,23.5 375.5,23.2 375.4,23.1 375.1,23.4 	"/>
	<path class="st7" d="M374.2,24.4c-1.9,2.2-0.2,0.6,0.4-0.5C374.5,24.1,374.4,24.1,374.2,24.4"/>
	<path class="st7" d="M372.5,22.3c-0.1,0-0.1-0.1-0.3,0C372.3,22.3,372.4,22.4,372.5,22.3"/>
	<path class="st7" d="M373.5,24c-0.2,0.2-0.3,0.4-0.2,0.4c-1.8,2.1-0.4,0.8,0.3-0.3C373.5,24.3,373.5,24.1,373.5,24"/>
	<path class="st7" d="M371.1,23c-0.5,0.7-2.1,2.5-1.8,2.5C369.8,24.8,371.4,23,371.1,23"/>
	<path class="st7" d="M372.9,26C372.4,26.8,373.5,25.4,372.9,26"/>
	<path class="st7" d="M370.7,27.2c0.7-1,1.1-1,1.5-1.9c-0.3,0.1-0.6,0.5-0.9,0.6C371.5,26,370.5,27.1,370.7,27.2"/>
	<path class="st7" d="M372.2,25.6C372.7,25.1,371.1,26.8,372.2,25.6"/>
	<path class="st7" d="M371.9,26.6C371.4,27.3,372.5,26,371.9,26.6"/>
	<path class="st7" d="M371.5,26.5C371.1,27.2,372.1,25.9,371.5,26.5"/>
	<path class="st7" d="M370.9,27.3C370.4,28.1,371.5,26.7,370.9,27.3"/>
	<path class="st7" d="M368.9,30.2c0.7-0.7,3.6-4.7,0.6-0.9c-0.2,0.2-0.2,0.3-0.3,0.3C368.9,29.9,368.8,30.2,368.9,30.2"/>
	<path class="st7" d="M368.9,25.8c-0.2,0.3-0.8,0.8-0.6,0.9C368.7,26.1,369,26.1,368.9,25.8"/>
	<path class="st7" d="M368.7,29.8c0.1-1.3,1.4-1.1,1.6-2.3c-0.6,0.4-1.3,1.2-2,2.3C368.5,29.8,368.5,30,368.7,29.8"/>
	<path class="st7" d="M372.3,31.7C373.2,30.7,372.4,31.2,372.3,31.7"/>
	<path class="st7" d="M369.2,29.6C370.3,28.4,369.4,28.9,369.2,29.6"/>
	<path class="st7" d="M363.5,32.9c0.7-1.2,3.5-4.3,4.2-5.6C366.4,29.1,364.1,31.5,363.5,32.9"/>
	<path class="st7" d="M372.2,31.5C371.7,32.3,372.7,31,372.2,31.5"/>
	<path class="st7" d="M371.8,32C372.3,31.5,370.7,33.2,371.8,32"/>
	<path class="st7" d="M364.9,31.9c0.7-1,2.7-3.2,2.6-3.5C366.5,29.8,365.3,30.7,364.9,31.9"/>
	<path class="st7" d="M371.4,32C370.9,32.7,372,31.4,371.4,32"/>
	<path class="st7" d="M371.5,32.1c-0.3,0.4-1.4,1.7-1,1.4C370.8,33.1,372,31.8,371.5,32.1"/>
	<path class="st7" d="M368.6,30.6C368.2,31.3,369.2,30,368.6,30.6"/>
	<path class="st7" d="M368.8,30.7C369.3,30,367.9,31.6,368.8,30.7"/>
	<path class="st7" d="M367.9,30.2c-0.3,0.6-0.4,0.3-0.7,0.6C366.7,32.1,368.3,30,367.9,30.2"/>
	<path class="st7" d="M368.1,30.4C367.7,31.1,368.7,29.8,368.1,30.4"/>
	<path class="st7" d="M371,33C370.5,33.8,371.6,32.4,371,33"/>
	<path class="st7" d="M367.8,31.5c0.2-0.3,0.5-0.6,0.5-0.7C368,30.9,367.7,31.4,367.8,31.5"/>
	<path class="st7" d="M366.5,30.9c0,0.4,0.9-0.7,0.7-0.8C366.9,30.6,366.7,30.8,366.5,30.9"/>
	<path class="st7" d="M367.9,30.7c-0.4,0.6-0.7,0.6-1.1,1.3c0.5-0.9-0.4,0.1-0.5,0.5c0.1-0.2,0.3-0.3,0.3-0.3c0,0.2-0.6,0.8-0.5,1
		C366.4,32.7,367.5,31.4,367.9,30.7"/>
	<path class="st7" d="M367.7,32c-0.1,0.1-0.3,0.3-0.3,0.3C367.5,32.2,367.6,32,367.7,32c0.2-0.3,0.7-0.5,0.7-0.8
		c-0.4,0.1-0.9,0.9-1.5,1.6C367,32.9,367.7,32.4,367.7,32"/>
	<path class="st7" d="M367.4,31.8C366.9,32.5,368,31.2,367.4,31.8"/>
	<path class="st7" d="M370,34.7C369.2,35.6,370.5,34.1,370,34.7"/>
	<path class="st7" d="M365,33.1c0.5-0.7,1-1.3,1.2-1.8C365.6,32.1,364.8,33,365,33.1"/>
	<path class="st7" d="M366.3,32C365.9,32.7,366.9,31.4,366.3,32"/>
	<path class="st7" d="M366.9,32.8C366.6,32.8,366.3,33.7,366.9,32.8"/>
	<path class="st7" d="M366.9,33.1C367.5,32.4,366.1,34,366.9,33.1"/>
	<path class="st7" d="M364.6,32.1c-0.2,0.2-1,1.2-0.5,0.7C364.3,32.7,365.1,31.6,364.6,32.1"/>
	<path class="st7" d="M366.2,33.6c-0.2,0.2-1.1,1.4-0.6,0.9C365.8,34.2,366.7,33.1,366.2,33.6"/>
	<path class="st7" d="M365.2,34.4c0.5-0.6,0.6-0.9,0.6-1.2C365.7,33.6,364.9,34.3,365.2,34.4"/>
	<path class="st7" d="M365.3,33.3C364.8,34.1,365.9,32.7,365.3,33.3"/>
	<path class="st7" d="M366.1,34.1C364.8,35.5,366.5,33.6,366.1,34.1"/>
	<path class="st7" d="M364.6,33.3C364.2,34.1,365.2,32.7,364.6,33.3"/>
	<path class="st7" d="M368,36.3C367.4,36.9,368.2,36.5,368,36.3"/>
	<path class="st7" d="M364.8,34.1C365,33.8,364.7,34,364.8,34.1"/>
	<path class="st7" d="M364.8,34.1C363.9,35.2,364.7,34.6,364.8,34.1"/>
	<path class="st7" d="M363.9,34.5c-0.5,0.7-1.3,1.6-1.3,2C363.4,35.6,363.4,35.6,363.9,34.5"/>
	<path class="st7" d="M364.5,35.5C364.7,35.6,364.9,34.7,364.5,35.5"/>
	<path class="st7" d="M365,35.6C364.6,36.4,365.5,35,365,35.6"/>
	<path class="st7" d="M365.1,35.8C365.6,35.1,364.3,36.8,365.1,35.8"/>
	<path class="st7" d="M364.4,35.2c-0.2,0.3-0.5,0.7-0.4,0.8l0.4-0.5L364.4,35.2z"/>
	<path class="st7" d="M361.6,35.6c0.3-0.4,0.7-0.7,1-1.4c0.1-0.2,0.1-0.3,0-0.3l-1.9,2.9c-0.5,0.6-0.6,1.1-0.1,0.2L361.6,35.6z"/>
	<path class="st7" d="M363.7,35.2C363.3,35.9,364.3,34.5,363.7,35.2"/>
	<path class="st7" d="M363.8,35.5C364.2,34.9,362.8,36.7,363.8,35.5"/>
	<path class="st7" d="M363.9,36.2C363.4,36.4,363.2,37.4,363.9,36.2"/>
	<path class="st7" d="M361,37.4c0.2-0.4,1.2-1.7,0.8-1.3C361.6,36.4,360.6,37.8,361,37.4"/>
	<path class="st7" d="M359.7,38.3C358.9,39.3,360.2,37.6,359.7,38.3"/>
	<path class="st7" d="M359.9,38.7C359.5,39.5,360.5,38.1,359.9,38.7"/>
	<path class="st7" d="M359.7,38.8C360.1,38.3,358.5,40.3,359.7,38.8"/>
	<path class="st7" d="M360.3,39.3C360.8,38.6,359.5,40.3,360.3,39.3"/>
	<path class="st7" d="M358.6,39.9c0.1-0.1,0.8-0.9,0.7-1.1C359,39.4,358.8,39.5,358.6,39.9C356.3,42.9,358,41.2,358.6,39.9"/>
	<path class="st7" d="M359.7,39.1c-0.4,0.7-1.9,2.7-1.6,2.6C358.5,40.7,359.9,39.4,359.7,39.1"/>
	<path class="st7" d="M359.4,40.6C359.9,39.9,358.6,41.6,359.4,40.6"/>
	<path class="st7" d="M358.5,41.2C357.7,42.2,359,40.5,358.5,41.2"/>
	<path class="st7" d="M358.6,41.8C359.1,41.1,357.8,42.9,358.6,41.8"/>
	<path class="st7" d="M359.3,42.4C358.7,43.1,359.5,42.6,359.3,42.4"/>
	<path class="st7" d="M357.5,41.8C357.1,42.6,358.1,41.2,357.5,41.8"/>
	<path class="st7" d="M357.6,42.2C357.3,43,358.1,41.7,357.6,42.2"/>
	<path class="st7" d="M357,42.2c-1.7,2.3-3.7,5.3-4.6,7.5C354.1,46.7,355.4,44.8,357,42.2"/>
	<path class="st7" d="M356.8,44.3C357.3,43.6,356.1,45.4,356.8,44.3"/>
	<path class="st7" d="M356.3,44.8C356,45.6,356.9,44.1,356.3,44.8"/>
	<path class="st7" d="M357.1,45c-0.1,0-0.2,0.2-0.3,0.3C356.8,45.4,357,45.2,357.1,45"/>
	<path class="st7" d="M355.5,45C355,45.5,355.5,45.7,355.5,45"/>
	<path class="st7" d="M354,48.4L354,48.4C354.2,48.3,354.1,48.3,354,48.4"/>
	<path class="st7" d="M303.8,70.7C303.2,70.1,304.2,71.5,303.8,70.7"/>
</g>
</svg>
